<mxfile host="app.diagrams.net" modified="2021-06-20T08:30:10.875Z" agent="5.0 (Windows NT 10.0; Win64; x64) AppleWebKit/537.36 (KHTML, like Gecko) Chrome/91.0.4472.106 Safari/537.36" etag="2ocfCJQ52Qkr992fxRgR" version="14.8.0" type="github">
  <diagram id="yPxyJZ8AM_hMuL3Unpa9" name="gitflow">
    <mxGraphModel dx="1278" dy="547" grid="1" gridSize="10" guides="1" tooltips="1" connect="1" arrows="1" fold="1" page="1" pageScale="1" pageWidth="850" pageHeight="1100" math="0" shadow="0">
      <root>
        <mxCell id="0" />
        <mxCell id="1" parent="0" />
        <mxCell id="QgJrXV9QVyHgD5AR6pSV-99" value="" style="rounded=0;whiteSpace=wrap;html=1;fontColor=#0f62fe;fillColor=none;strokeColor=#808080;strokeWidth=1;" vertex="1" parent="1">
          <mxGeometry x="20" y="260" width="650" height="480" as="geometry" />
        </mxCell>
        <mxCell id="QgJrXV9QVyHgD5AR6pSV-28" value="" style="edgeStyle=orthogonalEdgeStyle;rounded=0;orthogonalLoop=1;jettySize=auto;html=1;strokeWidth=1;entryX=0;entryY=0.5;entryDx=0;entryDy=0;entryPerimeter=0;strokeColor=#808080;" edge="1" parent="1" source="QgJrXV9QVyHgD5AR6pSV-1" target="QgJrXV9QVyHgD5AR6pSV-2">
          <mxGeometry relative="1" as="geometry">
            <mxPoint x="140" y="510" as="targetPoint" />
          </mxGeometry>
        </mxCell>
        <mxCell id="QgJrXV9QVyHgD5AR6pSV-29" value="&amp;nbsp;1&amp;nbsp;" style="edgeLabel;html=1;align=center;verticalAlign=middle;resizable=0;points=[];" vertex="1" connectable="0" parent="QgJrXV9QVyHgD5AR6pSV-28">
          <mxGeometry x="-0.1692" y="2" relative="1" as="geometry">
            <mxPoint x="5" y="2" as="offset" />
          </mxGeometry>
        </mxCell>
        <mxCell id="QgJrXV9QVyHgD5AR6pSV-1" value="" style="html=1;verticalLabelPosition=bottom;align=center;labelBackgroundColor=#ffffff;verticalAlign=top;strokeWidth=2;strokeColor=#0080F0;shadow=0;dashed=0;shape=mxgraph.ios7.icons.user;" vertex="1" parent="1">
          <mxGeometry x="45" y="495" width="30" height="30" as="geometry" />
        </mxCell>
        <mxCell id="QgJrXV9QVyHgD5AR6pSV-47" style="edgeStyle=orthogonalEdgeStyle;rounded=0;orthogonalLoop=1;jettySize=auto;html=1;entryX=0;entryY=0.5;entryDx=0;entryDy=0;strokeWidth=1;strokeColor=#808080;exitX=0.5;exitY=0;exitDx=0;exitDy=0;exitPerimeter=0;" edge="1" parent="1" source="QgJrXV9QVyHgD5AR6pSV-2" target="QgJrXV9QVyHgD5AR6pSV-3">
          <mxGeometry relative="1" as="geometry">
            <Array as="points">
              <mxPoint x="192" y="370" />
            </Array>
          </mxGeometry>
        </mxCell>
        <mxCell id="QgJrXV9QVyHgD5AR6pSV-48" value="&amp;nbsp;2&amp;nbsp;" style="edgeLabel;html=1;align=center;verticalAlign=middle;resizable=0;points=[];" vertex="1" connectable="0" parent="QgJrXV9QVyHgD5AR6pSV-47">
          <mxGeometry x="0.5337" y="-3" relative="1" as="geometry">
            <mxPoint x="-6" y="-3" as="offset" />
          </mxGeometry>
        </mxCell>
        <mxCell id="QgJrXV9QVyHgD5AR6pSV-49" value="&amp;nbsp;3&amp;nbsp;&amp;nbsp;" style="edgeStyle=orthogonalEdgeStyle;rounded=0;orthogonalLoop=1;jettySize=auto;html=1;strokeColor=#808080;strokeWidth=1;startArrow=classic;startFill=1;" edge="1" parent="1" source="QgJrXV9QVyHgD5AR6pSV-2">
          <mxGeometry x="-0.0417" relative="1" as="geometry">
            <mxPoint x="310" y="510" as="targetPoint" />
            <mxPoint as="offset" />
          </mxGeometry>
        </mxCell>
        <mxCell id="QgJrXV9QVyHgD5AR6pSV-52" value="&amp;nbsp;5&amp;nbsp;" style="edgeStyle=orthogonalEdgeStyle;rounded=0;orthogonalLoop=1;jettySize=auto;html=1;entryX=0;entryY=0.5;entryDx=0;entryDy=0;strokeColor=#808080;strokeWidth=1;startArrow=classic;startFill=1;exitX=0.5;exitY=1;exitDx=0;exitDy=0;exitPerimeter=0;" edge="1" parent="1" source="QgJrXV9QVyHgD5AR6pSV-2">
          <mxGeometry x="0.3674" relative="1" as="geometry">
            <mxPoint x="202" y="529" as="sourcePoint" />
            <mxPoint x="339.61986712090186" y="643.1028461237702" as="targetPoint" />
            <Array as="points">
              <mxPoint x="192" y="529" />
              <mxPoint x="190" y="529" />
              <mxPoint x="190" y="643" />
            </Array>
            <mxPoint as="offset" />
          </mxGeometry>
        </mxCell>
        <mxCell id="QgJrXV9QVyHgD5AR6pSV-2" value="" style="aspect=fixed;pointerEvents=1;shadow=0;dashed=0;html=1;strokeColor=none;labelPosition=center;verticalLabelPosition=bottom;verticalAlign=top;align=center;fillColor=#0080F0;shape=mxgraph.mscae.enterprise.android_phone" vertex="1" parent="1">
          <mxGeometry x="180" y="490" width="24" height="40" as="geometry" />
        </mxCell>
        <mxCell id="QgJrXV9QVyHgD5AR6pSV-3" value="" style="shape=image;verticalLabelPosition=bottom;labelBackgroundColor=#ffffff;verticalAlign=top;aspect=fixed;imageAspect=0;image=https://www.ibm.com/cloud/architecture/images/tools_icons/app-id.svg;" vertex="1" parent="1">
          <mxGeometry x="320" y="350" width="29.61" height="40" as="geometry" />
        </mxCell>
        <mxCell id="QgJrXV9QVyHgD5AR6pSV-4" value="&lt;font face=&quot;Comic Sans MS&quot; color=&quot;#0f62fe&quot;&gt;&lt;b&gt;USER&lt;/b&gt;&lt;/font&gt;" style="text;html=1;strokeColor=none;fillColor=none;align=center;verticalAlign=middle;whiteSpace=wrap;rounded=0;" vertex="1" parent="1">
          <mxGeometry x="40" y="280" width="40" height="20" as="geometry" />
        </mxCell>
        <mxCell id="QgJrXV9QVyHgD5AR6pSV-5" value="&lt;font color=&quot;#0f62fe&quot;&gt;DEVICE&lt;/font&gt;" style="text;html=1;strokeColor=none;fillColor=none;align=center;verticalAlign=middle;whiteSpace=wrap;rounded=0;fontStyle=1" vertex="1" parent="1">
          <mxGeometry x="172" y="280" width="40" height="20" as="geometry" />
        </mxCell>
        <mxCell id="QgJrXV9QVyHgD5AR6pSV-6" value="IBM CLOUD" style="text;html=1;strokeColor=none;fillColor=none;align=center;verticalAlign=middle;whiteSpace=wrap;rounded=0;fontStyle=1;fontColor=#0f62fe;" vertex="1" parent="1">
          <mxGeometry x="440" y="280" width="70" height="20" as="geometry" />
        </mxCell>
        <mxCell id="QgJrXV9QVyHgD5AR6pSV-10" value="" style="endArrow=none;html=1;strokeWidth=2;strokeColor=#808080;" edge="1" parent="1">
          <mxGeometry width="50" height="50" relative="1" as="geometry">
            <mxPoint x="120" y="490" as="sourcePoint" />
            <mxPoint x="120" y="280" as="targetPoint" />
          </mxGeometry>
        </mxCell>
        <mxCell id="QgJrXV9QVyHgD5AR6pSV-22" value="" style="endArrow=none;html=1;strokeWidth=2;strokeColor=#808080;" edge="1" parent="1">
          <mxGeometry width="50" height="50" relative="1" as="geometry">
            <mxPoint x="120" y="720" as="sourcePoint" />
            <mxPoint x="120" y="520" as="targetPoint" />
          </mxGeometry>
        </mxCell>
        <mxCell id="QgJrXV9QVyHgD5AR6pSV-41" value="" style="endArrow=none;html=1;strokeWidth=2;strokeColor=#808080;" edge="1" parent="1">
          <mxGeometry width="50" height="50" relative="1" as="geometry">
            <mxPoint x="258" y="300" as="sourcePoint" />
            <mxPoint x="258" y="280" as="targetPoint" />
            <Array as="points">
              <mxPoint x="258" y="360" />
            </Array>
          </mxGeometry>
        </mxCell>
        <mxCell id="QgJrXV9QVyHgD5AR6pSV-42" value="" style="endArrow=none;html=1;strokeWidth=2;strokeColor=#808080;" edge="1" parent="1">
          <mxGeometry width="50" height="50" relative="1" as="geometry">
            <mxPoint x="258" y="415" as="sourcePoint" />
            <mxPoint x="258" y="380" as="targetPoint" />
            <Array as="points">
              <mxPoint x="258" y="495" />
              <mxPoint x="258" y="455" />
            </Array>
          </mxGeometry>
        </mxCell>
        <mxCell id="QgJrXV9QVyHgD5AR6pSV-43" value="" style="endArrow=none;html=1;strokeWidth=2;strokeColor=#808080;" edge="1" parent="1">
          <mxGeometry width="50" height="50" relative="1" as="geometry">
            <mxPoint x="257" y="530" as="sourcePoint" />
            <mxPoint x="257" y="520" as="targetPoint" />
            <Array as="points">
              <mxPoint x="257" y="630" />
            </Array>
          </mxGeometry>
        </mxCell>
        <mxCell id="QgJrXV9QVyHgD5AR6pSV-50" value="" style="endArrow=none;html=1;strokeWidth=2;strokeColor=#808080;" edge="1" parent="1">
          <mxGeometry width="50" height="50" relative="1" as="geometry">
            <mxPoint x="256" y="704" as="sourcePoint" />
            <mxPoint x="256" y="654" as="targetPoint" />
            <Array as="points">
              <mxPoint x="256" y="724" />
            </Array>
          </mxGeometry>
        </mxCell>
        <mxCell id="QgJrXV9QVyHgD5AR6pSV-69" value="" style="group" vertex="1" connectable="0" parent="1">
          <mxGeometry x="300" y="325" width="340" height="90" as="geometry" />
        </mxCell>
        <mxCell id="QgJrXV9QVyHgD5AR6pSV-70" value="" style="endArrow=none;html=1;strokeColor=#808080;strokeWidth=1;" edge="1" parent="QgJrXV9QVyHgD5AR6pSV-69">
          <mxGeometry width="50" height="50" relative="1" as="geometry">
            <mxPoint as="sourcePoint" />
            <mxPoint x="340" as="targetPoint" />
          </mxGeometry>
        </mxCell>
        <mxCell id="QgJrXV9QVyHgD5AR6pSV-71" value="" style="endArrow=none;html=1;strokeColor=#808080;strokeWidth=1;" edge="1" parent="QgJrXV9QVyHgD5AR6pSV-69">
          <mxGeometry width="50" height="50" relative="1" as="geometry">
            <mxPoint y="90" as="sourcePoint" />
            <mxPoint x="340" y="90" as="targetPoint" />
          </mxGeometry>
        </mxCell>
        <mxCell id="QgJrXV9QVyHgD5AR6pSV-72" value="" style="endArrow=none;html=1;strokeColor=#808080;strokeWidth=1;" edge="1" parent="QgJrXV9QVyHgD5AR6pSV-69">
          <mxGeometry width="50" height="50" relative="1" as="geometry">
            <mxPoint x="340" y="90" as="sourcePoint" />
            <mxPoint x="340" as="targetPoint" />
          </mxGeometry>
        </mxCell>
        <mxCell id="QgJrXV9QVyHgD5AR6pSV-73" value="" style="endArrow=none;html=1;strokeColor=#808080;strokeWidth=1;" edge="1" parent="QgJrXV9QVyHgD5AR6pSV-69">
          <mxGeometry width="50" height="50" relative="1" as="geometry">
            <mxPoint y="90" as="sourcePoint" />
            <mxPoint y="63" as="targetPoint" />
          </mxGeometry>
        </mxCell>
        <mxCell id="QgJrXV9QVyHgD5AR6pSV-74" value="" style="endArrow=none;html=1;strokeColor=#808080;strokeWidth=1;" edge="1" parent="QgJrXV9QVyHgD5AR6pSV-69">
          <mxGeometry width="50" height="50" relative="1" as="geometry">
            <mxPoint as="sourcePoint" />
            <mxPoint y="27" as="targetPoint" />
          </mxGeometry>
        </mxCell>
        <mxCell id="QgJrXV9QVyHgD5AR6pSV-75" value="&lt;font color=&quot;#808080&quot;&gt;&lt;b&gt;Authentication&amp;nbsp;&lt;/b&gt;&lt;/font&gt;" style="text;html=1;strokeColor=none;fillColor=none;align=center;verticalAlign=middle;whiteSpace=wrap;rounded=0;fontColor=#0f62fe;" vertex="1" parent="QgJrXV9QVyHgD5AR6pSV-69">
          <mxGeometry x="247.27272727272725" y="70" width="82.42424242424242" height="20" as="geometry" />
        </mxCell>
        <mxCell id="QgJrXV9QVyHgD5AR6pSV-78" value="&lt;font style=&quot;font-size: 10px&quot; color=&quot;#000000&quot;&gt;APP ID&lt;/font&gt;" style="text;html=1;strokeColor=none;fillColor=none;align=center;verticalAlign=middle;whiteSpace=wrap;rounded=0;fontColor=#0f62fe;" vertex="1" parent="1">
          <mxGeometry x="310" y="395" width="52.3" height="20" as="geometry" />
        </mxCell>
        <mxCell id="QgJrXV9QVyHgD5AR6pSV-57" value="" style="endArrow=none;html=1;strokeColor=#808080;strokeWidth=1;" edge="1" parent="1">
          <mxGeometry x="301.13" y="580" width="50" height="50" as="geometry">
            <mxPoint x="301" y="600" as="sourcePoint" />
            <mxPoint x="640" y="600" as="targetPoint" />
            <Array as="points">
              <mxPoint x="470" y="600" />
            </Array>
          </mxGeometry>
        </mxCell>
        <mxCell id="QgJrXV9QVyHgD5AR6pSV-58" value="" style="endArrow=none;html=1;strokeColor=#808080;strokeWidth=1;" edge="1" parent="1">
          <mxGeometry x="301.13" y="580" width="50" height="50" as="geometry">
            <mxPoint x="301.13" y="710.9061254077565" as="sourcePoint" />
            <mxPoint x="640" y="711" as="targetPoint" />
          </mxGeometry>
        </mxCell>
        <mxCell id="QgJrXV9QVyHgD5AR6pSV-59" value="" style="endArrow=none;html=1;strokeColor=#808080;strokeWidth=1;" edge="1" parent="1">
          <mxGeometry x="301.13" y="580" width="50" height="50" as="geometry">
            <mxPoint x="640" y="711" as="sourcePoint" />
            <mxPoint x="640" y="600" as="targetPoint" />
            <Array as="points">
              <mxPoint x="640" y="640" />
            </Array>
          </mxGeometry>
        </mxCell>
        <mxCell id="QgJrXV9QVyHgD5AR6pSV-60" value="" style="endArrow=none;html=1;strokeColor=#808080;strokeWidth=1;" edge="1" parent="1">
          <mxGeometry x="301.13" y="580" width="50" height="50" as="geometry">
            <mxPoint x="301.13" y="710.9061254077565" as="sourcePoint" />
            <mxPoint x="301.13" y="671.6342877854295" as="targetPoint" />
          </mxGeometry>
        </mxCell>
        <mxCell id="QgJrXV9QVyHgD5AR6pSV-61" value="" style="endArrow=none;html=1;strokeColor=#808080;strokeWidth=1;" edge="1" parent="1">
          <mxGeometry x="301.13" y="580" width="50" height="50" as="geometry">
            <mxPoint x="301" y="600" as="sourcePoint" />
            <mxPoint x="301" y="630" as="targetPoint" />
          </mxGeometry>
        </mxCell>
        <mxCell id="QgJrXV9QVyHgD5AR6pSV-89" value="&lt;font style=&quot;font-size: 10px&quot; color=&quot;#000000&quot;&gt;NODE RED&lt;/font&gt;" style="text;html=1;strokeColor=none;fillColor=none;align=center;verticalAlign=middle;whiteSpace=wrap;rounded=0;fontColor=#0f62fe;" vertex="1" parent="1">
          <mxGeometry x="312.44932421984" y="669.8912649510692" width="82.40463032065942" height="21.747009786154408" as="geometry" />
        </mxCell>
        <mxCell id="QgJrXV9QVyHgD5AR6pSV-90" value="&lt;font style=&quot;font-size: 10px&quot; color=&quot;#000000&quot;&gt;CLOUDANT DB&lt;/font&gt;" style="text;html=1;strokeColor=none;fillColor=none;align=center;verticalAlign=middle;whiteSpace=wrap;rounded=0;fontColor=#0f62fe;" vertex="1" parent="1">
          <mxGeometry x="435.99269695445776" y="669.8912649510692" width="103.00578790082429" height="21.747009786154408" as="geometry" />
        </mxCell>
        <mxCell id="QgJrXV9QVyHgD5AR6pSV-37" value="" style="shape=image;verticalLabelPosition=bottom;labelBackgroundColor=#ffffff;verticalAlign=top;aspect=fixed;imageAspect=0;image=https://b.kisscc0.com/20180815/igw/kisscc0-node-red-node-js-logo-computer-icons-input-output-node-red-icon-logo-5b74d36285f409.2684935415343829465487.png;" vertex="1" parent="1">
          <mxGeometry x="330.749867120902" y="624.1029358463211" width="45.80979449049704" height="39.999820554898086" as="geometry" />
        </mxCell>
        <mxCell id="QgJrXV9QVyHgD5AR6pSV-53" value="&amp;nbsp;6&amp;nbsp;&amp;nbsp;" style="edgeStyle=orthogonalEdgeStyle;rounded=0;orthogonalLoop=1;jettySize=auto;html=1;entryX=0;entryY=0.5;entryDx=0;entryDy=0;strokeColor=#808080;strokeWidth=1;" edge="1" parent="1" source="QgJrXV9QVyHgD5AR6pSV-37">
          <mxGeometry x="301.13" y="580" as="geometry">
            <mxPoint x="458.85929240309497" y="643.6505845198442" as="targetPoint" />
          </mxGeometry>
        </mxCell>
        <mxCell id="QgJrXV9QVyHgD5AR6pSV-40" value="" style="aspect=fixed;perimeter=ellipsePerimeter;html=1;align=center;shadow=0;dashed=0;fontColor=#4277BB;labelBackgroundColor=#ffffff;fontSize=12;spacingTop=3;image;image=img/lib/ibm/miscellaneous/cloudant.svg;" vertex="1" parent="1">
          <mxGeometry x="464.9987540677961" y="624.8904929322217" width="44.99979812426035" height="44.99979812426035" as="geometry" />
        </mxCell>
        <mxCell id="QgJrXV9QVyHgD5AR6pSV-76" value="&lt;font color=&quot;#808080&quot;&gt;&lt;b&gt;APIs&lt;/b&gt;&lt;/font&gt;" style="text;html=1;strokeColor=none;fillColor=none;align=center;verticalAlign=middle;whiteSpace=wrap;rounded=0;fontColor=#0f62fe;" vertex="1" parent="1">
          <mxGeometry x="591.1262398445288" y="690.000826386372" width="39.953760155471244" height="26.18122508155129" as="geometry" />
        </mxCell>
        <mxCell id="QgJrXV9QVyHgD5AR6pSV-63" value="" style="group" vertex="1" connectable="0" parent="1">
          <mxGeometry x="300" y="450" width="340" height="120" as="geometry" />
        </mxCell>
        <mxCell id="QgJrXV9QVyHgD5AR6pSV-64" value="" style="endArrow=none;html=1;strokeColor=#808080;strokeWidth=1;" edge="1" parent="QgJrXV9QVyHgD5AR6pSV-63">
          <mxGeometry width="50" height="50" relative="1" as="geometry">
            <mxPoint as="sourcePoint" />
            <mxPoint x="340" as="targetPoint" />
          </mxGeometry>
        </mxCell>
        <mxCell id="QgJrXV9QVyHgD5AR6pSV-65" value="" style="endArrow=none;html=1;strokeColor=#808080;strokeWidth=1;" edge="1" parent="QgJrXV9QVyHgD5AR6pSV-63">
          <mxGeometry width="50" height="50" relative="1" as="geometry">
            <mxPoint y="120" as="sourcePoint" />
            <mxPoint x="340" y="120" as="targetPoint" />
          </mxGeometry>
        </mxCell>
        <mxCell id="QgJrXV9QVyHgD5AR6pSV-66" value="" style="endArrow=none;html=1;strokeColor=#808080;strokeWidth=1;" edge="1" parent="QgJrXV9QVyHgD5AR6pSV-63">
          <mxGeometry width="50" height="50" relative="1" as="geometry">
            <mxPoint x="340" y="120" as="sourcePoint" />
            <mxPoint x="340" as="targetPoint" />
          </mxGeometry>
        </mxCell>
        <mxCell id="QgJrXV9QVyHgD5AR6pSV-67" value="" style="endArrow=none;html=1;strokeColor=#808080;strokeWidth=1;" edge="1" parent="QgJrXV9QVyHgD5AR6pSV-63">
          <mxGeometry width="50" height="50" relative="1" as="geometry">
            <mxPoint y="120" as="sourcePoint" />
            <mxPoint y="84" as="targetPoint" />
          </mxGeometry>
        </mxCell>
        <mxCell id="QgJrXV9QVyHgD5AR6pSV-68" value="" style="endArrow=none;html=1;strokeColor=#808080;strokeWidth=1;" edge="1" parent="QgJrXV9QVyHgD5AR6pSV-63">
          <mxGeometry width="50" height="50" relative="1" as="geometry">
            <mxPoint as="sourcePoint" />
            <mxPoint y="36" as="targetPoint" />
          </mxGeometry>
        </mxCell>
        <mxCell id="QgJrXV9QVyHgD5AR6pSV-77" value="&lt;font color=&quot;#808080&quot;&gt;&lt;b&gt;Watson Discovery&lt;/b&gt;&lt;/font&gt;" style="text;html=1;strokeColor=none;fillColor=none;align=center;verticalAlign=middle;whiteSpace=wrap;rounded=0;fontColor=#0f62fe;" vertex="1" parent="QgJrXV9QVyHgD5AR6pSV-63">
          <mxGeometry x="215.65145835238184" y="93.33333333333333" width="132.75243058730302" height="26.666666666666668" as="geometry" />
        </mxCell>
        <mxCell id="QgJrXV9QVyHgD5AR6pSV-79" value="&lt;font style=&quot;font-size: 10px&quot; color=&quot;#000000&quot;&gt;DISCOVERY&lt;/font&gt;" style="text;html=1;strokeColor=none;fillColor=none;align=center;verticalAlign=middle;whiteSpace=wrap;rounded=0;fontColor=#0f62fe;" vertex="1" parent="QgJrXV9QVyHgD5AR6pSV-63">
          <mxGeometry x="18.76626741031972" y="86.66666666666667" width="54.195239401420245" height="26.666666666666668" as="geometry" />
        </mxCell>
        <mxCell id="QgJrXV9QVyHgD5AR6pSV-88" value="&lt;font color=&quot;#000000&quot; style=&quot;font-size: 10px&quot;&gt;NEWS&lt;br&gt;ARTICLES&lt;/font&gt;" style="text;html=1;strokeColor=none;fillColor=none;align=center;verticalAlign=middle;whiteSpace=wrap;rounded=0;fontColor=#0f62fe;" vertex="1" parent="QgJrXV9QVyHgD5AR6pSV-63">
          <mxGeometry x="163.35000000000002" y="86.66285714285719" width="52.3" height="22.857142857142854" as="geometry" />
        </mxCell>
        <mxCell id="QgJrXV9QVyHgD5AR6pSV-35" value="" style="shape=image;verticalLabelPosition=bottom;labelBackgroundColor=#ffffff;verticalAlign=top;aspect=fixed;imageAspect=0;image=data:image/png,iVBORw0KGgoAAAANSUhEUgAAAgAAAAIACAYAAAD0eNT6AAAgAElEQVR4Aey9B7gc13EmCkqy5XVYr9Z+Kwe9t95ne/c5rrVar59X8vfu9ICkwCAxgaRIkQTBTIqZYhIDmBGm5yLnnHMmciYBIhA5A0TOgYgEL+69M1Pv+4dostHomek+pzrMdOH7Lnqmp8M5depU/adOhRYt5J9QQChQNRT4t670f6RN+q+pTvQvqQxdm87SnUaWHk2Z9ErKpA7pLPUxTBqbytBcI0vzDZM+Lf5laYdh0i7DpEOGSacMk84aJpHtr+nSefxW/EuZtNswaWfx/gwtKz7TpCmGSSMNk3qmTXo/naEXUxl62DCpdTpDV6dM+u9Xd6A/q2tH36kaokpDhQJCAaGAUEAoEBUFWranP2yZpX8wMtTKMKmNkaXXDJO6GSZNMjK0zDBpn2HSRZvCtivvuH4+bpi0KZWlhYZJwwyT2htZ+pWRpRvr6umf6jL0x1HRW94rFBAKCAWEAkKBcChAdFVdB/pBKkv/X8qktoZJ7xoZGmWYtMLI0MkqU+ycgONLw6QNRaBjUqe0SY+k66llXT39Rbt29K1wBkfeIhQQCggFhAJCAU0KtB5L3y6a6E26NZ2lN2COxyq4ClfvnEpe9VkAB2tSJg3HFkc6QzfVZemvQGPNYZLbhQJCAaGAUEAooE4BI0t/njbpBiNDL0NJQVmJor/Mr0BV8Ve674KRpeVGhnrB/6AuS/+zrh39jvpIyp1CAaGAUEAoIBQoQYFrs/QfjSxdY5j0m7RJky8501VSVPL75Y6GQdKj2cjSesOkfuksPVDXif5ethBKMLOcFgoIBYQCQgF3CrRuR7+dqqcfpzL07CWPd3jCB6m85NnB0BeRDvMu+Vu0+nEH+gP3EZezQgGhgFBAKJBICvyoD/1WKkM/Mkx6yTBpmkuInCjoYBR02HTNGSZtvhQq2VqiEBI53aXTQgGhQJIpUNeDfh8x9KksvZcy6SPDpEZZ4SfSwpG/5GTYoRh5IH4ESRYL0nehgFCgJilAdFVLk34IT3LDpMWGSc2i8BOp8CtZHBB1MNsw6QXkZKjJuSCdEgoIBYQCtU6BotMestMhM16WDojCF4WvwAN7L/HPjRJlUOsSQ/onFBAKVDUFkIY2ZdLrlzLnYb+30opPfhcaeeWBLwyTJiJLI8BlVU8UabxQQCggFKgFCqSy9HeGSe0Mk7aKwhfAExIPAFx+nM7Q0/9WT39aC/NI+iAUEAoIBeJPAaKrjCz9r3SGOl4qVuN1BSfXyWo/CB4AGFicNukJFGqK/wSSFgoFhAJCgSqjQDpD/5wyyTRM2hvSKi8IZSHPrG0QgmREM4wM3YNIkyqbYtJcoYBQQCgQHwqgrCzKzSJ2W5S+mPerjAcuoNhTqhNdL7UL4iNTpCVCAaFAjCnQqit9F+ViLxXRkXC92l4xJ8IikjbpcNqkLulO9I8xnnrSNKGAUEAoEA0F0vX0rymTehsmna6ylV4ilJiMCZsF5uNirQLZIohG0MhbhQJCgXhQALnZ4TwlJn425SJgpHosJmfTGeqBokXxmI3SCqGAUEAoEAIFELoH4WeYdE5WlvzK/76BBRq9PE8dZxa0AQGegWfhmTJW/GMFmiIddSpLd2H7K4TpJ68QCggFhALhUgAFdwyTWqeytFAUSTCK5M6+RBNW5enIyRwd/TxH9XP0lTaegWfhmRNW5umOvsG0XXiiSNdjRobekdwC4comeZtQQCgQEAXSnen7hklvGiYdEiEfjPJsmSUyZxVo//GvFD8UNjcAsJ6Jd2RmFSidDaYvwiNFuqI41TBUqAxoWspjhQJCAaFAcBSoy9JfXXLqaxChHpyy/GV/oo+25YsK31LS1pHTAmA90zou3pqnu/sF1y/hma9oW9weyNAt7drRt4KbrfJkoYBQQCjAQIG6LP3PSyF8KLUq+8YB0qD9hwU64Fj1WwoaxyABAJ4Pa8AHH+pvMwifeJgnGdqG6AHxE2AQUvIIoYBQgJcCRpauMUyal3RhDtP4UyML9Pqk4BTj1fVEI5a5r/rDBADWu4YtzRPaFNTYg5agqWw7FGmMrbQXEEHDO4PlaUIBoYBQwAcFkOEsnaU7DZPWBCX8q+W5t/ch6jG/QJv25Yp/N3YPRiHiufM2VVb+YVgALACA45yNebqhW3B93rw/Rxv35Yo0Bq2rhS8CbOfpVIbe+skH9D0fU1YuFQoIBYQCehTAfmQqS7cbJm0JUMDFXshf25notUmFokK2PO8PHc/Rw0ODWf3Dy3/tnssd/exK2Pk56C0A5/tW78rRHQEp50eGFujgia/6DlrP3Zin30wsEMYgyTxomHQWkQNSolhPpsndQgGhQCUKEF2VztBNRpbWJ1no3tyDqNfCPH12+EplzBF770ZbKFasgp1Kt9z3sAEA2oJVeuvewShlRB84+7vzUI56LsjTTT2CeafbWMT03FnDpHfT3emPKk1j+V0oIBQQCviiAIqaGCZ9GlPhF8oqEB73Iz/Jl3S8m7kuT+kAnP6gUDfu9af8oSijAAB47/o9ObotABAA2s5a7779AWdI+EVIZAIBCLwpPgK+xJtcLBQQCrhRoGWGfmKYtCjJiv+xYQWasjpPhy8l2HGuQvEdK9FbevKvQmFtWLPbv/KPEgDg3ev25OjWXvz0wEp/x6HS9DjyeY5mrMsXnQaTzLNGhk4aJr1U145+x21eyzmhgFBAKFCSAkhCkvSsfc+NKdDS7e4rTicIeGU8/74/lJ2fPX9nm6KyAFjtAHD5eQCm+VcmXLkVYL3Tfvx4W56eHcM/LlUGLPalTGorJYlLijr5QSggFLAoYGTpz9NZ6mOYlKsyQce2DfDosAIt3OxN8UPhjF2ZZ3u3RfNr6slXG+yKz/ocNQBAOxZvydPVATjqIS2x1c9KRyRK+tWIxAOBrUaGWlnzXI5CAaGAUOBrClzTiX4PYUWGSRcsJZS04wODCzR7g3fFAsWz5UCObgwg/G3MCn/tcFOCcQAAaBf8Jrh5CeGQWw+W3gpwo8fs9XlqOzjxQGCS0ZH+8uuJLx+EAkKB5FIAIX0o0mOYtI9bSFfL8+Dchz1+7B+7KY5y514ax69QsrO9mbjLtQu/xQUAoC1BREd43Qqw08nyEWgziH/cqoXfDZOa0iZ1adme/jC5kk96LhRIOAWMTmSkM7S2igQX60oSq8jhy8o799mVh/Pz9LX8K9vnxxbKOhs621Due5wAABwonx3Nr3Th8FeOBqV+O3QiR8hgGFTCpiqZU0eQXljqDCRcEUj3k0WBqzvQnxkZGlMlQopV6aPPSCn77rRC0XO/lIKodH7PUf5QN5Ta3X3EvxWiVFvjBADQxl2H+XMEINwQY1GKBpXOI6Lg7amFQMI3q2h+rU5n6d+SJQWlt0KBhFGgmLo3Q08Xs4cFEK9eDQLvwcHePfvLKQ8U4uHsL3LpL9mqtpot1c64AQC0c9GWPKF8MSftsL1QigZez8NRED4gnO2qumdhUZCh/5wwsSjdFQrUPgVSnehfkpyz/2fdvyqgY6Xs9aoY3K5bvoNfiSGbndu7dM7FEQCgP93n8SpaAIqVO/Xph20KbAklfFvgy3SGXqxrR9+pfakoPRQK1DgFUCzEyFAvw6RYlOdFeFvYK6M3Jxdc0/aqKFc4kT02nFeB4XnlkgyptBP3xBUAYP8doZacfPDECH0rgEVnJHUCz3C2r9KzAGJils54TUuTfljj4lG6JxSoUQoQXZUy6V7DpGOVhE8Yv0O4dVtAdO/A8ADArT2pmBXOEuwcx8mf8jr+YbXpN8e/137EFQCg/UhtzF09cOpqfSuAnbbT1+UDye5Yar7dN6BAXWYjnXG44KNUewyTmlMmdfjXLP27GpWS0i2hQO1R4BqT/k/DpNllJnZoqxukxx21kuiz40T3hKj8UUMeTmd2ga77ef9xfie2cT4S2vhtf5wBAPqCXAecPIqCSRgjv3Qqdz0KPqHqIGc7yz3rzj5Es9fmaOiSPN0/MLz3lmuTYdJORAzVnqSUHgkFaokCqNaXpQfi4OQH7+xxnxI1NBHtOEaBFIdxE1rInT9tLe9K0FIQPebzCuSnR/GZra022o9xBwDYTnlyJC9Ng/ClAE1hXQjLRI/3TFmVp5XbczR6WZ5QCtmN10M+V0ibNABbirUkMqUvQoGaoEBdB/pByqSZIQuFKwQTQtkmriG62EzFf6v3Ebupt1QfX52gF9pnV57Oz9sO5qhVF77ti592JtqgUOHP2a5y3+MOANB2FA0CLUqNqd/z13UpXyyoHL0q/YaQwSBqPrj18bquRKOWfgUCAATGLc8TIljcrg353JF0hm6rCaEpnRAK1AIFjCzdb5h0JmRBcJkwwop/8jqiptxXih//L95BdA2jcC/VPyiQsQypc8spgA+Yw/76LwrGSmHvQzUAALS3z0LerYAOM4K1rIxenmcFLaX4GnNn8JJvQACAwMileWoTg62BtEmT/62e/rQW5Kf0QShQlRSo60h/golYSoCEcR4rlb5LiC40fqP48WneViLEtgfdBqTxXfVZsMoUq1TO6AWkoT14gnev2q74rc/VAgAQFdCWMTUvxmr9nmDpi0qH94WgiJG0qvf8y0GABQTu6R+5ReB0Okt3VqXwlEYLBaqZAqks3WWYdDpoBVvq+RCyXecTnb5wueLHtynrvsq2V+pervPtJhdo37FgBT2UKbYWuNqMcK9lO4IFLNUGANBeJOKBsuOi8+uTg7UCoM17j+UI7+Fqc6nngC7d5lwJAlZszxEsSbf35qNbqTaUO4/qoSgmVs3yVNouFKgKCrTqSv/eMGlYuQkZ5G9pk+jt6USHTl+p+HFm9EoKPK0qTP4c1fIsRVnu+MmOPGt/3pkWvGKy+lMtFgCrve2m8ClTKM0VDMmBrLaVO6LaIacfg9v8xbwzZ14JAmAN+GRbjupn5en6rhECgQxtS2XoR1UhRKWRQoFqpECdSf+vYdIuNwERxrnnxxFtO+qu+HF20NLgBVAYJn+7sEdxHi7awkHNbwlbe1v8fq42AIDSypyOli+OCw9sIRPh3f2C5/8OM9xBAIDA4k05enNSIZSttxJzotEw6SUpLlSN2kXaHFsKIId/yqTXkZijxMRjU1Juz79vINGK3aUVP37puzh44ffi2ELR7OpXEapeD1O9Gz1Uz/VaGI7p3+pvtQEAtLvHfD6aY9W8PCQrANqOokScgLEUn9XPztOq7blimCAUv/NvxpocPcUcXlmqLSXOL0AuktgKVGmYUKBaKIDiHIZJS0pMNFYF5XwHTIow6TfbPPudMCCXJ+q5gG+V7GyD9R3KjCOPv6UcvRxfYFz9I0qCO0lNpT5UIwCAT8dtvfjA5Mvjw7MCYDyQ0jk7O/j50G1entZ+dqXyt4OBMcvy9MvoHAVPGSa1rhY5K+0UCsSOAmmT7ojK0e+d6UQnzjvV/eXfLzQUqDtzchxL4VtHhEKNDTBbXiklipUjVpBWO3SPQWb8K9WHagQA6AtopUtv636MIUehoFI0LnUePipXBxwC23N+nrbuKw8CVmzLUedZeUK0jkWTkI+D6nrQ78dOuEqDhAJxpUCrrvTdSwV8Qp+0DwwhWrf/ckXv/JbPE50+lyfuzHhOwYSsftwlcksJbOd57B8726P6HQlcwrZeoD/VCgBAK86wwJcnhGsFsHgJpY+Dzh6IbSVsPazeWR4IzN+Qo+dGF1hBrY/5sDnVmf5bXOWttEsoEBsKtOxM/5dh0gofk4tFUaEozYTVRDDpl/vX0Fig46dy1Jc5eYuzv4iV37Qv+BA/S1jbj8grwLn6n7cp3L1/qy/VCgDQ/jkbGa0AWSLE7Vt0CfOIokdB5wsYuCRf3HrYUsEagO0BpBa+s28k1oCzRpZujo2glYYIBeJGASNL1xgmnXAqwyC/Q9G1n0l0yiWe3w4ECgWiM+e/UmTDlvIJZ7e+wZEKMdZhCmr7u5BfwK1dKudQ6tf+7DA/VzMAAJ04Swa/PTW6ccAK/dnRfDzl5EPM4RHLvpqbuw/n6NMK1gCEDWZm5OnagLconO00TEI9gffh1Bw32SvtEQpERwGiqxA+Y5iUc5k0bMrI+ey7+hGt2mtX8+6fG5sKdPz0Vwp5/ErehC3ONiGxShhZ8kopYoSice7dLtgczeof/at2ADCX0QoAX5IwQzCd/IVsh28x5jlwzhvkPZhwyVfm0MkcbdxTfksA1gBUHXx4SHDAxNlG2/dF6c70/egErrxZKBATClxK7DPRNjkCU/jWO7BiyM69Mn2vU/1j1X/2i28UGOqjB5net/2H0eyV24W1OYtPID42LLpVZy0AAPQBFhSLb3WPXeZEOx6ofphh5C8nPZBlcsrqb+brZ4dytHJHeSCAbIJINRx6EqEsHUh1on+JiRiWZggFwqdAS5N+mDJpt3MiB/m9zSCijYecqv7K7/AF+PzsN8IE+9hBFvbpHXKMvF3pW593H8mxCsKFEa7+awUAgO+45gP8XGCOt8Y7qiNKFnP1yfkczNH5Np+TA8dztKZCuCCsAXPX5ehxRrDlbFeJ7w0pk9qGL3nljUKBiCmAGFnDpAslJga7gMDKvf9HRI2XyvReqfK/OXOxsUDHTn0jKBESF9QKAabL4Zf2L6MSyNZ7kVedazx+NSLa1Sb6VO1bANa4cFoB4DBnPTfKI/xowPtc/GZ/DuaqPQHS4RPetgQABPosyNMNIYcMpkzqjciniEWyvF4oEAIFiK66lNWvYJ+0QX5+eCjRzmPfKPhyn85fuFxAomb9LT2DEVTYa59sM1lGKZCxR4tkPVzjgBCwKPuDd9cKAMCKlmtc7uhLkYRkuvHCpE+DyxVwa08iRCDY37vzYOUtAYCABRsisAZkaTmqm4YggeUVQoFoKFDXjn7HMGkklzCr9Bys+od+QtRcIbQPgMBp8ofg2HEoR3AUrPQeld9RPGX2huiVpCUgp67hUzJR7/1bfaoVAID+PMTorPbhuvjwHeZAUN74qE2w89DlIGD/MW9bAvANQAXCoNpWQmbsTWXp76KRzvJWoUCAFAC6NbK0vATjsyvZu/sTbT5cbq3/zW92L39LeSAlK6fQtfcbQiVOyh99hsne3kadz9PWxkPB1BIAgKVIZ0zs9z49KvrtGWue4Yi5EJR/Deaws2Q2tgQ2eIgSgDUAdQXuHcA3N+zjUOLz6ZRJ6QBFsTxaKBAuBerq6Z9SJu0vwfBsgs16/gczK3v4W+r/iy+vFIbIZx5UURMIurgpfyT+sWine4TFJIqsf3aFYn2uJQAAnoT5Xnd8cD+iYKJKDGSNjfM4a31wIODXY92ja7AlsKpClABAAPIGvDe1QIgy4KC/h2egqmCbcKW0vE0oEAAF0hm6yTDpvAem155c8HKev9VS7eWP+QLRqXPuK9VOM4NB/FD+EHRO4Rf19/en8/UXzl1R98d6fy0BAPRpyMd8QO2DD68EvhbdojrOQJhtQMl5EH7o1q+9RysnDgIIwN/45XnWQk0VZGIhlaG3WhBdFYBYlkcKBYKnQDpDTxsm5Sswurbix/OfGkV05Gx5pW/9mssRnTxz+d6gJRyCyvIHwTYzRnuvVn8R+sdVg/7nPcKv+Gf1w+1YawAApmyAXI75BE/5OIQEOsetmGsjIBBgZQt0vhOJtypVFrRAwOJNoZcaHta6Hf128NJa3iAU4KLAV5n92nEIqkrPgKNf3yXeHP0AALDfbw/xswsD5F8PItHPNfVEEGz2d8XlMyfgQXGkuPQL7ag1AIA+dZ3LZ60ppRCjHkP4kGDOVJr7fn/H3EZ2Rbf+YYvFS/ZACwjAQTAIWVGiT0vrMvTHXOJZniMUCIwCde3oO4ZJg0owMuuk/kU/745+UP4o3+s2+XFu9a4c3dAtGKETF6c4t75zVZ1DVAOiJtzeEdW5WgQA2w7m2BzmHhhcej5ENWbWe6euzgey535jt9L+D/Bd2bK/fOZACwDgOHFFnm7txS8zSsjOLdd0ov8SmOCWBwsFdClwYx/6XcOkaSUYmFX5vzCO6MyXllG/8vGcI77fEjQ47jqcI4AJ7nbD2Qp10e3vitPnZdv59pSjLDZTiqa1CADQV85iTct3xJc/R37Cx5/2uQ1H1V1HSoNVpBD24hwIEIAtAc4IGns7XT4fTWXoR7pyWu4XCrBT4Nos/UcjQ8tcmJZVsUKpwuQPJz4v/8o5+0GYwvT3zCg+s6q9/30WxVe4ou/vTuPrN8BEKUUc1flaBQAfbeNTjHF0BrTzS1Bpg58dUyjOffu77J/9OAciZ0B2ZjAWC7s8ufT5TKqefswuwOWBQgFVClzdgf7MyNJ6F2ZlVf5wXFq03Yva/+qacs5+1mTPzuZTgvb+x12wotwwV3rjtjE1JdcqAADvcm3dYNtr//HSq2FrnkR57DgjmDnaeW75LRA4B3qpI2BtC4xZlmdz0rTLEpfPF1A6XVVey31CATYKtKynvzGydMCFSVmV/30DifZ97l35l3P2s4TZxFX5Ykw0d9tfneAed2y9Nw7HUYzm1dHL47f6B41rGQDAgY+Lb8ddKqMbB750awOsdC+P5wcBsCZWSsVdTBq027tfAEoM392Pv60uY91gZOlGNkEuDxIK+KVAyyz9g2HSMRfmZBNOePbrU7wn9gFEcBbzcRMqKBYCxzXutmM/8GDMV1SgB9L1cvQdTlVxXUHWMgDgtOA8EYPCTW5z1H4OVf0eZ8xWafE+QmBX7qwAYE/maNNe7yDg4y05emYkz/yy2lni2JQ26Q6/cluuFwpoUwClfA2TTpRgTBblYu33Fzzu90P5f3mxvFkPQgUOQEE4/d03sFDWucgu0KL8vHFfjs3y0XFmZXpH1ddaBgCgKbaZOOYf5pmzcE5UY1buvchbwLX1YafbXX2JkA+j3LuPfJ6jLfu8gwBsC9TPCq7ioa39uXSWHtAW6PIAoYBXChhZ+l+GSadsTMgiiOzPw97kit3eTf640i2tr3NSYyK/NI5HcNrbi0p6Ww+WFyLOtkT1vcd8HvMxFEfcUsraaVrrAIAzhXOfhRVWwZ/Hg7e3HMgFko3v5QnegOx2H2GCAAFDP8qzJdqyyxvH54KRpV95ld9ynVBAmQLwQDVMOutgQFYAcHsfos+O+1P+5cL87EoB9dC5246tBHv9cfv74vYZAAgrHg4aYLsjbv2zt6fWAQD6+thwHjD7y/4U67G0jysiToLYvhv8kTcQhDBBy/HPy3HqqjzdHFBJccc8fklZsMuNQoFKFEhn6d8Mk845mI5FmVjPfGAI0bFz3pU/dgfOnPc2cZdu5881jlUw6prbBVScPy/ZygeAJsTceSwJAAB5Jqy5o3uMYyhnqbmEREGYe7p9tt+P7IOLt3qby8gd4jVXAEDCvA05uqc/D1izt9nlc/tKclx+Fwr4pkC6nloaJl1wYTi2SfjSBH/OfvANKFXQxyk4Pjuco9a9eQUGaNF9XrxXwU46cBX+QQihs8yq811Rf08CAMC+OFcth/YxLBBUjoe6zOFXqJARkBXl3mv9VswV4KGaoGUl+GhLjh5nstiUlcMZese3gJcbhAKlKJDO0NWGSQ1lmU4TjWfnEuXy3lf+SPDz+VlvaB1mb5QE5W4/QpPwbEsgxP2IuOafMRWTeWtK/IFPEgAAeO7NyTy8fVMPokMnqoefkbo3iHn94jjvvL3/mPdqggACK7bl6LUJPONVQZ7JdkAphSbnvVOgZYZ+Ypj0RQVmU1auMOONWuld8ePKfL50NT83JcxZ8MaiA7yR474CdtJi9no+c/HCzd7Al7MNYX5PCgCYt4lvXFEQK8wx0n0XLCCIvrHmJddx+DLvdECI4moflgAAgWwYEQLiGOhd0cmVV1Kgrp7+KUhv/2s7E83bGqzy/3QXv8MQyt5u2Fs9KyVLyHLlkIeTJlZf1nPjekwKAMBYcG1vxbGmQyX+QlgrrBdcyh/PgWxClEWld1u/I/fH6p3+nAP7LsjT1VnedjtoUDBMeuhKyS5nhAIVKFDXif7eyNBJB0OxTTLUNd9wUEX5e5+UQObcqwOUAF20xXsbLAER9RECCkl7OMazWvwekgIAwFtdmMoEY14eqoJEVs75tGAzfy7++wcVCDLE+a5S31VAwPCP+Rcojjmek2RBFZSd/Hw5Ba7uSH+dNumwg5FYlAeeCbS+7Wiwyh+TFE5N3H3oF/MCP6WE04freMzE2LJZVyXWjyQBgLV7cmy8Pmt99QFc8H2vhTw8bpcZfhNdqYCA8cvzbHU57G23fW6StMGX6zj5VoICdR3oB4ZJe2zMwyZY8EzUz97lM8YfDn8nz/gTSnM38ocJoYJYNZi+3UDA65N4wBBSCLs9P47nkgQAQP9HhvKMMbaK4jieldqEufnsaB4aWPIPgHf2Bn+yRwUETP80F3SugEYjQ61KiH05LRRo0aKuI/2JkaUdFvNzH+/sS3TwlM+Vv4LyR6rf23rxmLstGiDTn9fwoEqCKuzfkaufq/IfHCrDbr/q+5IGALicXZGFE0pMle5R3rfjEP/ch39FpVTBzj6rgIDZ6/h8OSy55Th+IaWERdO7UqBle/pDw6QNDoZhW/3fM9Bfgh/ABJWVPyYiV1iURQskCEECHeckr5bvXOb/llkiCNhq6XfSAMC2gznCGFl8q3Ocua56+R0+OvDV0em/816VsFe/IYKIDpi/IUdYKDnfz/j9TCpDP3JVAnIymRT4UR/6rVSG5jIy2WUM3GYQ0cnzwa/8oZi4lJ2dFv0XV68wBE3aTeExiz41srpMw0kDABhrpGe2867q53emVddYO0Fp3wD8Aaau8S8HVEDAgo05uivYksIn6rL0V8nUdtLryylAdJWRpaGqgqLSfY8MIzrzZTjKf+ehHN3MHA70/NjqSvbjFISopY6wxUrj5OV31KB3Pj/O35MIALi2AeCoC96J8/iWaxsSdL3InPwLNFGxgKmAgMWbcnRvsKmDt/7kA/re5cpAviWOAimTOngR/irXPDmK6FbJHvYAACAASURBVIuL/pQ/0vt6zfDnFACvTuRZ/Vh9xd4fcn4731NN35Gwx+qPzhEmVQCsaup7EgEAFBTXNsDiKgx3tfMnfHbgu6PD9857X1d0kAQI8FM7ANsBizbl6JcBgoBUlha2bke/nTilJx3+igJpkx5xMjjX94eHEp1r8Kf8cfVpj4V97BMdnxG6xNV2PCedJUJssfM91fYdYUwcdIF3dbX1PYkAAGOErRqOMTdnVd+YO3l0/ib+aKAZiv4Re474BwGwBNw3gGc8XXkiQ6NaEF0lOjFhFDCydLNhUs6VKTTz+j+oqPzPfqGmcJEOlBvpd5pZ/cIPwvCOPjwroFGfqI2NUyCH+T2pAABbNRzzGs5oYY5XUO/qOINXgSIT5t5jatawXT5LCcMSUNwOCBAEpDL0VsLUX7K7a5j0vw2TvuQQEs5nwOHv1AX/K//zF9QVzAfMCX/uGUCE0LmgBFJYz12+k0cRIAqiGkMgkwoAsA3A5QW/cqf6vAyLzyu9B3P5l/15gLAl7wAqKr231O87DvpLGWyBgAAdAwvpLN2XbK2YkN7D+zOoFL939yc64dPbH1DhQoP6ZEJ4Hsz11sTUPULZfbKj+oUehA9XZrRqNP+j/0kFAOj706N4Vr19FtbGXFi2nTc0EDLno23qtNm63z8IWLAhR3cw+zTY5GWj0YmMhKjBZHazVVf694ZJm22DzqY47+hLdOSs/5V/Q6O68kfOcqzWOfvTc4H6pC6F+KM6z5UZrtq8/y16JxkAcEUDVFPmR2vcSx17zOcBRZa8QZ0RlNgu9b5K57fs9Q8C5q7L0a09eWWe1R/DpNPpDP1tMrVjjfe6XTv6lpGhqbbBZlOct/Qi2ve5f+Xf2FSgY5+rTyDk5efszwOD9SZ0pQkf5u/w2OfwBkcq1C0H1McozD4735VkAIAxw9jpzg/wUDVu/zh5Ad8PncjRw0zpki26DliivmBA6uKNe/yDgJlr+KsfWv1BGnhkhK1xdZi87qVNet82yNqCwXrWzT2Jdp/wr/ybmgt07JS6YtmyP0fXddEXcFY/ftqZCAVV3ARHNZ4bt5IHHD04RN1CEzXdkgwAQPu2g3hWvBNWqSu5qHnA+f41u3OEuW7Ne90jUmzrAGTkK1i/yz8ImPZpnq26p5MGaZM+adWVvps8LVmjPU5n6U7DJNSGZmN8PAvMv91nVT9AhVye6PhpPWX7ygQe4WbRZPDHtSPkIPR+w5QTAX4ETiFaLd+TDgB6zOcBgaqx73Hlk4FLeOhiyQ7kH9HpKywTq3f6BwGTVuapFeMiyOoPjimTeteoOkxWt1qa9EPDpAv2weX4DNPgx5/5X/kj0Y/fyn7OyTVvE+8Exiq3mrOeOemDvqCuO8c4V7MXeNIBAFcUCHipluYHTO9c/jHWHINMcs5DP99VEgUhOmD0sjzBcdlqB+cxnaUHkqUta6y36c70/ZRJ+zmZwnrWtPX+lT/uOKOY6MeaTHD8u7sfH8Nj8qyogVAniz44ohiKNU46R+QQsD+32j4nHQDAvMyVH6Oai2G58e3yHbxRAQgzhGxye5fXc6g4CKXu96/3fP5kR5fkRoMUDqpSUIA9HMOkpToKoNS9/T5SU/7nv9RDyZhIKMxTql0q56EkvE7Qarmu61ye7ZEOGrHOcaBV0gEAxoArRwY86OMwppxtyM7mmSeW3MHWgm77th/wDwAAGDp8yCsXrT4ZJu1Nd6c/qlI1mNxmp0zqbhtENqX59jQimPH9/tMJ97MmFRKcoFY5V7+wwt2nmNHLalMcjw8N4RFsumbNqGkjACBHszfwKIZHh9UeAECCIM7Suzd246mXsVEhPBAg4HUmvx8X+Tqv9Vj6dnK1aZX1PG3SHS6DqK04nxlD1JTzq/qJmnN6Hv+WIuFazVi0mbNRH7FbbYvLEcWLOML/ALR0TZpR00QAQI4OHs8VnXUtnlc9IrMgTNRRjyn3+7kAkkVXyCjdNmLrZp1CZMCKbXzloK3+WMdUlt6rMjWYzOamTfqvhknnrIHjOiLFr0pxn3ye6ISmxz8m1Ke7ePfsas2z2RI6U9bwrPheGa8vyKw2RXUUAPCVwn5xHI9FaLpiEZyoxt/re1+bxEMfyFoApdW79IESIgPWKEQGLN2SozYD+fpj0x+FdIZuSqZWrZJe17Wj3zFMWmMbNO1VP551S0+ig6f9r/x1Svs6Jy/S0XL1C17NKnW9nW2K4/f3pvPQaWQVFv9xjocAgK8UEVdWQI7VrXOM4vAdSbN+3oNva/HZMTzgGduTK3f49wlAymDIbC55aXvOOckUGGMwkDZpgG2wWBjgp12Ith3xr/xxh67HvyUcZjOX+h29vPZM/xatfsEUIbFpn/4qxmpTVEcBAF+N4Ya9ORZZgOibqMYy6PcC8HLKTq7tRWRh9BsVgOsnr8qzJjyy0WZzXQ/6/RirwWQ2LZWlu2yDxMbMMzaqKX+dAj/2yY6Y3baDeVa1oA+ehWfa31Ernzfu4xH0CGmqBZoIAPiGz+/qy7MiBI/VAm84+wCZ8CCjnLl/EJ+cQdZTFRAwaDFvoTRLv6RM6p9MLRvTXrfM0j8Ekeyny3w15V9M86uR498+OZGG1GI83SNyoy/eUrur/1FMqxidUqf2sYv6swCAb5Q1lwPtmBW1O38WbeaTNZBVkz9lotXJHK39TA0EdJjO2ydLBqczdFtM1WGymnVNJ/o9I0PbrIHhOj41mqg57x8AYN+fw+kPygOVtrhM2qAL0uNGrZSCfH+7yTyWklnrmQQXEwhUpZkAgG8AwIx1PIrgrSm1PYdeZUwxflc/0qoWaOd7RHN8quAPsGJ7jjj9p2z65fO6DvSDZGnbGPY2naU+tkFhWS3f3ofo8y/8K3/ccVoz05+d6bmcl0AfFADZvP8bgWh/T618RklmXV64pnPt5EYQAPANv+85mqOrGYrgYCuhVuaLWz/g+8JZLIizlPZuRX8ARAbcO4BncXCZfMnSfFSZjaFaTEaTjAy14i7yg9S4Gw+qKX+ufX9MTCTpuK2XvkKzGBaFUdwmfK2cQ0Uyq686x6dG1s4KTwDANwAAfP7ECB4lsLVKy0N7nevd5/HQCfPw1p5UlGVe313pui371LYC5q7L0c8Yk6hZMiadoReToW1j1strOtF/Mkw6Zg0E11E1xz/nvj8mAWfKX+RDB6CoNLmq+feJTL4S/RfVDlASAHA5z/dZxLMNwLa3HfEWUan5jvA7rhoKkMsDGFIEf93Wk2pJguBEOOLjQJwCG416+h8xU4+13xzDpGlcSt96jjlHbeXPue8PRscEvIkxLhfK8esJFFOho9s+LicvVJDTbUtc7hcAcDkA+GQHDwCo1XwAdr6dsJKHVpCtN/fgXYCo+gMABLQPxilw64196HdrX+vGpIdpkx6xlDbX8YmRaml+uff9MQk5V//IYY7UmvbJXYuf72PI/oUESbUUIikA4HK+L5aJZjADtxlUO9tEpWQBZAZnyWCOQkH2tu5R9AdAuuDHh/NtcVj6J2VS75iox9puhtGR/tIw6bxFeI5jUfCfUVv9c+77g8Fhqudc/S/cXDsrWrsAsH9G/v90Vt9fAilj7c+t9s8CAC4HABjPF8bqC3/wGniu2vmjUvsRMswhX/EMbisA2q7qD7B4U45a99aXF07apLL089rWvhH3rq4dfccwaYWT8LrfF2xTU/7FIj/Mq2vsl+n2x7r/OaaUnJUERdS/f8gU4jXoo9oCSwIArlTSWIla80PniLDCqPk+jPcjra8Onez3clsBjiI/gELRoGKmwJV5upYhKsTeP8OkE/9WT38asZqs3dcbJr3pILg2c3aYpab8URH45BleIYDVP5AyRx+R9KeW9rPLCTuuuubLd/COZ7k2h/GbAIArAQDmBMf8As+FMYZRvwP0gizhoBny83M7I+9XrBcAENBtDg8vOGgzpXY1cIQ9a1lPf2OYdNFBbC3G/OUAoguNagDg/AV+ZTF0KR9DvlrjSX/sgvGhIfqrlFrb/wd9BABcCQC4/ACwP27nwVr+/ApjciDkNuGm1fYDaqGBAAHPjNSXHU6dhLT0EarK2ns1ki0YJi11ElrnO+L9txxWU/4I+eNmYggmrqx/LbNEa3ZfKfy42xyH52FFwZHg5cWx/GMaNX0EALjPAQ4/AMgPROtEPcZhvH/tnlyxzK+OvLXuRbIulPrlbDccd9cpbgXAH4C9cmCGTqY70/drTxNH1KO0Sc9ZDMR1HL1KTfkXQ/7O8DIwJgNXHDvo88602lNmpQTGvE08VhP2/Ulm35BS/S93XgCA+zzl8rOZv4l/NVtuPKP87e2pfCvlIPIoIDRw1XY1S8DYT/jzA6RNmhyRuqyt19bV019we/0/O5YIilzl37kATP+Y2G0H8UwwOLbUespfuyDsMZ+HbrW2/w8aCQBwBwBc+QBqPbumfZ4h0yZXiuBipcAAAPLOg2oAAFsB7zICHGuRKgWDdLEI0VWGSXMsgnIcYe45eV5F9RM1NgWzskbtbI6+4RmZWcG00S4M4vT5VwzpXW/oRoQtmDj1i6MtAgDcx5TLD6CW0kZ74beOM3nANuTU3I3BWE/W71YDAcu35eh+hlwiDjl+9Ccf0Pd01WBi70+Z1NZBUG1F+fRoor5L1P66zC0UV1UQrJx/SCzC1U+Y6jjbFvdncaxKkPY07v1Uad/DQ/X5Cs9QeXfc7+FIdQvei3s/OdvHuQ0AmcfZNutZ5qwCvT2lQG9N9v/37Cj9+XKFHM9Qr8QqcJ2O13WkPzFMOnUFQZlCUuS5PKE9Qkeho/CA8IDwQEkeyBsm/W8dXZjIe9MmjRemKslUbBYDobHQWHhAeEB4IFAe2PCjPvRbiVTkKp1O11NLYchAGVIAhFiShAeEB4QHwuOBl1R0YeLuad2OftvI0DYBAAIAhAeEB4QHhAdqhAcuGBn6z4lT6H47bJj0Uo0MuKDr8NC10FpoLTwgPBBvHsjSOL/6MFHXX3L8OysAQFC/8IDwgPCA8ECt8UAqQ9cmSqn76ayRoVG1NuDSHxFiwgPCA8IDwgOXeGCLOAS6oIKWGfqJYVJBJopMFOEB4QHhAeGBWuUBpLZ3UYHJPVXXjr5jmLSxVgdc+iXCTHhAeEB4QHjgEg+clWJBNrxjmPSMTA6ZHMIDwgPCA8IDSeCBdJb62FRgcj/W1dN/MEz6PAmDLn0U4SY8IDwgPCA8YJiUa5mlf0iu5r/Uc8OkTjIhZEIIDwgPCA8IDySKB7I0P9EAAIkRDJMaEjXoEqsb71hdGR8ZH+EB4YGQeCDRYYFGloaK8hfULzwgPCA8IDyQUB7Y2HosfTtxloCUSf/dMAmVkgRtCg2EB4QHhAeEB5LKA20SBwAMk+aI8hfwIzwgPCA8IDyQcB7Y26orfTcxICCdoas5B/yd6UR9l6j99V5EVD+nEOhfZlaBDdm+PTXYtgZNC93nPzFCn5Zpkyg7u/bp+PBQfVrhGbpjFvf7wQvgCV2Z9NTI2qdVubFsN0Wf36wxgMws9y6O396dWqC3Jqv9vTaRh2es/qYz9HQiAEC7dvQtw6TVVsd1j20GEeXypPzv87N5Ovp5LtC/qWvy2sIFdLqjD9GRk8G2NWha6D7//en6QubOvhToeOv2ket+CEnd+YVncLUnzs+5o68+AOg0Mxm0KjWOh0/m6Lbe+nQEz05fG7xc3nc0Ryu3q/89PVJ/ftnm5/Efd6A/qHkQYGToF7ZOawuoT3Yp63662BjOhH1pHA+j9FwQ/KQoNbnjcv6x4fq0xHjEpT9BtkMAgHew/CLDHIUFIMjxrIZnd5mrPz+hH8Kaoxv3qAOAmWtydHU9D+Ap6sQsvVbTAODS6n8LFwB4YZy68sedJ894FxCqk++zwzm6urM+k7TMEm3ZH3x7VfsZ1n03dtOnZY/5yQBSAgC8z5ce8/UV1009kmFZKjfX1+/JsWynXNOZaNdh7+NXrk3lfjt4PEerdqiDgDcm6fONTR+e+ckH9L2aBQGcq/90lmjHMXUAcKEhHLQ+bCmP+f/ZMeG0t9xkifo3ACDbZFH+PH2dAACvdEzKFsC0tTzzdMeh4JVW1POw0vs5/HTAn8OXhTNPt+xTBwCLN+WIY1FizcdUht6qSQBwafXPVvCn02x15V8oEB0/Fc5EfYTBEQvMMWVNOJOh0uSO8vdZ63mE9KZ94Yx9lLTCu8UC4H2cN+zlAZfzN8k8Hb+SZ54+OiycRc+hE3pWgPpZPP29BALO1qQVIG3SHRbK0T1e15Xo5Hl1APDFl+Ew1ro9PEIFpsVDx70Ls6gVT1Dv77dIf6IBrR8J2OkzqP77fa4AAO9zBjxxfVf97aVBHwkA2H+cZ1WMyIx1e72Pod/5Yb9+6351K8An23J0O5PzI3RjzVkBLq3+N+gqfuv+IcvUlX+Yq//u83j2h8xZ4QAW+4SI4+c3JuvTE+bJOPYtiDYJAPCnPDgcTBGmG8RYVtszP/hQf65C3sM3I4y+H9a0AvRnWJxY+s0wqbZ8AVJZut3WOeW9WzyjdR+ihiZ1APBFSHv/WFFwhBahz6t3+RNkYUyYKN7RdpC+UOkwIxyBEgV9nO8UAOBv3nAorYeGJIe/nPxm//7JDn1rHWTfL/qFZ7HTsQKs2J6jX/bTl082PflmbfgCEF1lZGm9rWNaAGDyOnXlX1z9n/YnFOxM7efzos08EyCsfTA/fYviWuzTwTNYl49GL0+OiVYAgL+5PvIT/Tnbqovk6rDkAwdgx3xfvDWcOVv0BdDICzB0iT7/2OTbqboe9PtVDwLSGbrN1iktAY4ELk05dQAQluc/JsA703jQYJIUliU43I6wgnDwEVYmbs+vxXMCAPwBgKXbeQQ4QuFqkZ/89mkoUwTUe9PDs6ps1YgIQFKh+wfyyP2irMvQk1UPAAyTVnAIbjxj+gZ15R/m6v8AkxPMtZ2J9hwVYQLBgygIXT5C6Oi+Y8mhpwAAf2O99xhPDPvMhISZVgIEOw/l6BqGRDk3didCvH6l93H8rmsFGMtgRbLkXMqk3XXt6DtVCwLSJqWszugesRfUXCWrf67Uv6+MDw/5ckyeIJ/RZ6E+AIBPRpBtjNuzBQD4VxocqWwHLEmOlakSzyN/ia7sx/0fhgiqdHwBYAV4eAhPny/RrXXVAgDDpGkcg49nzNyksfonohMh7f1jQrzJ4K2OPk9ZLYLEEjDtGGj6XMKSKQkA8A8Anh2tL7yx/WfxbdKP45hyAqDQUFi0hBVgpUZ2wPHL9RcrX+vNLC2vSgCQ6kz/zTAp/3VHNKpt3TNAr+DPhYvhMc/BEzmCyUq333AmSpK5utLkhne1Lk1R9a3Se2rpdwEA/gEACvro8hnCCWuJj3T6gi3MnzI47yJ/B2SrTlv83KuTHRBWAA55ZfFhywz9pOpAQMqk/lYHdI9zt6iv/nFnmKv/2Rt40N/rk0WI2CcsR7rNpDlUCgDwrzBGLNOfv1IT4HK6cxVDmxdilkVdK8AoJgfIS7pzUlUBgGs60X8yTGrQVfy4/96Beqv/L0Nc/UNhvcvk/T8jxD0vu6KN4+etB3kiAD7alqwtFQEAlysiL7y9eIs+AIDcQhEwL+9LwjWTP+WhKfI0hEmvzZoRAW35IgIKLevpb6oGBKRNeptD+eMZ8zRX/5+fDU/oox420L9u34vmrpC8XsOcUKrvWsiUU2HXkWQJZQEA/scbFeh05y/uXxJS7LrqnArzPqQGxpamLl1v7RlujoX9x9TTA2MbgDUvQIZ6VQUAuLEP/a5h0gndwcb9d/XTW/03NoeLGLkUlaQTvVxwoyqYLj/d2itZEQAQ8AIALucjr0rvZgYQP2ZFeAsPr/2K8rrXmMrmhpUUyKLV+t16IOCe/vo+JZdkX0O6M30/9iDAMOkxXWFt3T9xjd7e/+nz4U7CjgwOROj7nI3httti9rgeM7P0J9FTI8MFg3GgpQAANQDAUc42Oyd5/FaO5xHGZ8l1nSNkQbn3cP+2+7AeABjAWCMgnaU3qgEAsJT8hSldJ+d/Lh/uig+5/1szVIQqVv4L0duVe8IE8TyOWOL2Ie8fBkEHv88UAKAGADhqArw4NlxF5Zc3wr4eiXw4HHnDzuVx5GSOVu9UBwEreCsFHmvVlb4bWxCAcAUddGe/d7BGxT/YDc5dCHcVvYwpjej7Iaa9DFsIqL4PSaDsvKHyedjScPlBta+c9wkAUAMAQz7WX63+sn+4CxBOvgnqWYjlV5m7znuW7wx3Lu84oA4A4AvQebY+P31Ngwz9IrYAIGXS8K8bqhH3D4eRM1+qm//DLPlrTRYOYQvaIYzQeqYcc4RwHI50okncVuHgSTwjaXw4e72+wEbhKqwek0a7cv2dvlafrpCRXeeGy5O6pYKXbsnRDV31FzGXdOviWAKAugz9MVfoX9f56sofd4aZ+Mdi+LsZVqnXdQkv57XV7rgfUViFA1Ru2Js8YSwAQG3M1+3l4bkt+9XeH/c5qdo+JDZDfRPd+YzEcKptUL1PNzHQWwyZTC26pTP0t7EDAaks/dpqoM6xZZbo0Gk9AHDyTLgTbyOTwHhZcv9fMbGxctfhJ9wLCwIsCaqTv1rvEwCgNuZcVidEBVUr7wTVbg5/HsxpyNyg2uj2XPgwwJyv+jdvfY6uZiiMhL6nTeoSLwBAdJWRpR26ghr3v/uhnvK/2BSueQjMgv1ljr5L6NCVk5ojBBDWGbdJXevnBABcyU9ex/yuvvor1aRlnvRCWy5ZiYyNXt7Hec1GzZDA5xjqTFzSM6ev6US/FxsQkK6nlhwKEM/YekQPAJw+Fz5jwONXt/8oVbvjkLrA4mT0OD0L+ft1aZu0IkDW+AkAUJ9PHEWBuoS8V22Ne5yP2BZJa/iHWbIgCmvpniPqFgBYDiYyFUa6RIM28QEAJo23Bkbn+PAwPeUfdugfJhoKVFzP4ODxyNDwLRdxFhRW214cpw8AkJ/Bel6SjgIA1AEAwkZ1ZBnufXViMvmu0hxrO0iftpC5YRYHsvqkExIIEHDfAP2+X+LLeDgDdpxDf22Y1KQ7WXC/TslfQIcvvgx/wnFl/0O9e4vJ5PiN4G7DICwQ1pVEmgoA+IaP/I7/4I/0t/UeHBy+PPLbzyiu7z6PRwmibkPY7d+2X88K0HOePl9d0rWFuiz9VeRWgB4LeUL/ft6D6GKzngUgzKp/FuN1nsvDzKs+C5+ZrT7E+YjICF1wmdTQSgEA6gBgJkPmOpQFj/PciqptXDlTukWwxaLrDIiQQA6L8SWZ+G7kAKDDLDqqK6Bxf69Fesq/MQLnP0wgDnPWHX1EULgJo21MVQDX7VFXBG7tqpZzAgDUx30tU/gpigtVC7+E1U5kTUVhH1298eCQaCwsuvUB3pjIs2g0snSg9Vj6dmQggIj+sv1M/YGEU8iBU3oA4MwX4a+g4bQH5z1dRu4wIxpGDmvCq74HhT90aYvQmyj2ClX7zHmfAAB15XvoeI4QkqzLf5/sCF8ucfJQUM96h6FselSO0wB1quGAuG/6ah5HSPBmKkPXRgkA3uw8T3+SvDRBT/kj89+xU+qTXZXJxzN5dSbVRF2J7hMY6Htn3+RaVwQA6MkEWOZ0AcCU1QIA3OY5V1bAiavCpy8yPH66Qw8EwD9El7eKAMCk4VECgM2o2KfbkWW79ADAlxejWUG/wZDd6erORMiQ5TZJkn4OjpG6vPWrEdHwRhzGTgCA3rziqArYf3H4CioOvFepDbuO8FhY3pwczfzevFcPAPRjkG2XZOP5SHICENEPobaPnClmJlIW1Hf1I8oX9ADA52fDn2RAgajcp6ugHhseDQNXmqBx+B2FkXTp+9aU5NJXAIAeAIBy0eW/jrK9V3Jxw7EKhi8BfArCllf7juoBgGWczoBRFAgiok6W2n51kroinLTWeoraMZeLxsSLilS6wgH3IyQmbOatlvdxpA3tMT98cBgX+goA0FMMPebrAwDksYgLP8StHRz8CRkaVQTVGo0ywfAFeGW8Pn9d0kHTQt0GIKJvEdEBS2XDgQ8V/PwqxLaDiRo1Q//Oh1z215pEHCVDQS/JF15aSN/LkDRj7AoBAH7npf16CGmL55N2RGpuOy1UPreVXAAl+YejzgfGJKpS39sP6lkBxi/X569LPNmU7k5/FBoIIKIfW8rfOn68k3x5zcJ8vuekdbf68fjp0gokSIH16gR99PbTzlL9r9wYccTLJhlgcaywkgwAFmzWF9A/k1wAJQHA/uM5gg+UCrCy3/ObiDIuomiUTjQA7r29t37/i7TI0qNhAoCMm8petZfoll6VO9RmENG+z92e4O9cVLH/UFq3euinnUndPj89Krmrq3KKH78h1MaNZn7PhV01rFK/wvxdAIDe4gAlpP3ym9v14uRbehweH6G/kLqtdzTbwJjLujkBOkzXB5lFnsvS/DABwI5SqvpcA9GQZUQIv3JOhgeGEI37lKg5V+puf+fPRWT+56pR31fS/5ZcHXD4WCCOO6k5ACCcBACUVjxegBh4hyMXwOpdeu3w0tZqvQY+Ok49ofI9KqC/U3MbYO46nlwyhknNdRn648BBABH9o1c1jQiBzYeJNh4kOnXB613er4vK/D+OIT4dTL50e3L3pysJrA8ZUrG2jnBlUKl/YfwuAEBf8WJ1qaKQ7PdIno/S47BoCw8AgEwOY04538GxDcARDVHktww9GAYAeMO7ig7uyqbm6MznHFmsbuhGdPhk6YnhZLSkfedwsoR5MWl0s/dXAID+/EKYrl2Zq3yOona9nQ/i/BkZF1UcyJ3j8N706Ob6ul16vgDd5vCAoJRJM8MAAGuCU+venxyV+R+T6e5++quCX4+NjmHjLBCstmVn6wveqJKEWH2I+igAQB8AcCT7iqJoTdS85+f9z47Wn+u/7B+dH8COA3oAYOFGnq0mVOX9yQf0vcBAABH9BRFppu3xruTLXRlF5T8wdTH/v6kPAG7uQfTA4IL8laABqkM6Ub7fdsVKPgAAIABJREFU74g0STKNb2EouIJnJJmGHMm+ks6HlfiHg8aoJwPZ7Ad4cF2rWyEQ0QCPDNUHQUX5mKF7ggQAz5ZTymH9FqX5f9paHnONX2Um1+sDAqGh0FB4oHZ5APUFuJS63+fobgP0nMekV7I0LkgAsDAsJV/uPVEl/wFTZGYxITUGK4IIs9oVZjK2MrbCA/54wJwV3baqblKgxZtyhMqlDGN+vlVX+i47CCCiPyCipnKKOazfTpyJxtQDAIAa1AyDJM8QACQ8IDwgPMDIAw8NiQ4AcGwDPD6MR7ek66llEADg5rAUfLn3NOeiGWRUr0JucCaUJhOfceILIGNZOQhPCk9WNQ9ANkNGQ1b7NeFzXL/2Mz1nQMZtgM5BAIDe5RRzWL+d/zLcfR6kq0Syihu7iZAVRSs8IDwgPBB3HoCs7rkgT5DdHIrd6zO2a0YDLNjAlhTosyAAwN6wlHy594RZ+nfKmjwhmUzcGV7aJ2MkPCA8IDxwOQ/c3ocITtteFbjudfuP6VkAEA3QZiDPNkBdhv4fNhBARH9TTimH9Vu+EE6s57aDOXp+LM9AyKS8fFIKPYQewgPCA2HywAtjC7Q9hBDBI5/n6FPNEsEdPmSKBjDpGU4A8FxYSr7cexoag9//RygJR1xqmAwu7xKBKjwgPCA8UJoHINNnrAveGrBpr54VYNqnbADgQ04AMLucYg7rt7NfBDeASMuLzGlIKCETSWggPCA8IDxQezzQcUYh0BTsnx3SAwDYBmDadv6CJRyQiH6XiBrCUvLl3hNU9r/dR3L07Bgx+YvAqz2BJ2MqYyo8cDkPYHt3z9FgHARR2wBKXOfvjYk8uqhlJ6rTtgIQUctySjms34IK/8PeUNtBPASXiXb5RBN6CD2EB4QH4sgDbQcXAksdvEYzHHDExzzbAKksvccBAN5xKvmLzUT7TxHtOh5MmV/n+/D9QgP//v/m/TyFfeLI4NImEbzCA8IDwgOleQAFhLbs57cEbN2nZwFYuiVH13Yu3W6vY5o2aRUHAPgIChgVgOZvJXpuLFHL7OWNu6s/UZ8lRKe/dFPdPOdOnePd/0fhCI6qfl4HQ667nGeEHkIP4QHhgah54K6+RIj60g0BtN+/54geAMD2AVNxoHxdPf0HZRBARP+OiC6eOE/0q5GVmRU17gESuP8BfBw7xTdI2POHCShq5pP3V+YpoZHQSHhAeCBIHmgzqEC7DvPplyMnc7Ryhx4I6DSDaRugE12vAwBSR88SIaGC1wGAF/3ENbwQoLGJz/x/6ESOnhwpyt/reMp13nlfaCW0Eh6oTh54ehRvdMD63XoAYPIqHgCQzlBHZQDQ0EzvPDzU/4Bii2Ddfj4QwFn9r9NMUf4ipPzztNBMaCY8UNs8kJ3Nt9DUrQ64YnuOft6dgd5ZWq4MAIYtpx2qTP/gUKICbPcM/7jS/07iS7Lg2SJyS88CPTAwR8+NaqY3JjbRO5ObqP20Ruo4Xf6EBsIDwgPJ5YFXxjbT08O/+ntqWDM9MTRHjw7OUZv+ebqjV56u7xr+Ym3Kah5fs30MaYGfG83S/+a6HvT7vkEAEX33vkFUUAUAuG/dAX3tDxBhd7BQ/QxvzzAK+rSsJ2ozMEdvT2qifvMv0vAlDfInNBAeEB4QHnDywOIGqv+wkd4c31Ty75UxTfTYkBy17pmntMP5XEc3lbr3xu5EWw7o+wPAD2CVZj4AxuqA1/gGALM20u2liOT1fJ/F+gCgsVnfLIMczU8FvO9/fZcCvTimmQYsFKUvoEdAn/CA8IAXHhi2pIHMCiDAAgi/GdtUtKZyhMiV02HPjCoQdIbqYtO6T9cP4MM1Oc+W5nL9SZv0tm8AMGEN9Sv3UC+/vTlVHwB8wRD/P3YFj0OFW5/BjC+Pa6bBi2TCe5nwco3wifCA8ICdBwACOk4rbwmwQACOr4/7CghcHaBFYNxK/a2Abfv1HAHhB/AzDj8Ak+b4BgBT19MnbgrPz7kXxukDgNPn9QZi15Ec3dyDwZnCpUbA/QNz1HeerPjtk1k+i3AXHhAe8MsDQxc30PuTS28F2AGA9fnl0c3FrQE/Osnrtbf2JO10wQg310kJjHuf5rFcn27Xjr7lCwSsO0DHvRKr1HXvz9AHAMdP65ligvD6v7qe6Dfjm2RPz7mnJ9+FJ4QHhAcUeWDQwgZ6a4I/EAAw8NCgXCD+AbpRAQg51wUA9bN4rNfpDP2tZwBARH/+xUWiazTTEY77VA8A5PJ6DoBbD/CkVLQDnFadC5Sd0SiTXHGS+10ZyPWymhQeSA4P9JxzsaRDoLXydzs+O6KZrqnntfT+tLN+lsDVO/VAwKSVPAAgZVJbPwDgVqjuVyepExS5AI6c0QMADY16DoAdZrCEUXztiHFjtwL1mCMmfxHIyRHIMtYy1mHzgB9/ADsY+PWoZvppZ16Zn5mlp4M27dUDACu25ahVF3U9bC1e01nq4wcAdITq3naECJn9rIf4OXaaraf8cfe5C+r7/zsP8a7+sfIX5S/CMGxhKO8TnksaD2AroJ3CVgDAAEAApyUAVgCdNME7D+oBAGwhPDyEBdSs8wMAvg7g673YPwD4RT+ewkA6CYD6LeIxnQD0YM9fzP4iiJMmiKW/wvNR8UCXGWpbAQAB2A7gzBkwcIn6QnQ/Q0Kgd6awAICmVl3puxVBABF9m4jOW+v3fIGo/UzvIOCOvkR7Tlp3qx91EgAdPpmjO3zUL6hk2RCHPxGEUQlCea/wXhJ5YMiii0oOgdaWwEMDeWLooRtQMRCJfaz4fl9HhoRAgxbzLGZTGfqRFwDwd25qe/I6opt7lgYC2Cp4ezrRqQtud/s/p5MAaMFmHoJh8BHql8QJKH0WxSM8IDwQJQ901rACAAgge2ClxZ3X3xdtUbcC6CYEmruOB8yks/SAFwBwdyl1faGRaNYmonemf1Ue+IEhRC9PJBq8jGj3iVJ3qZ2/oJEA6L3pLCYTQpIfifMXIRilEJR3C/8llQcGL7qo7AsAAIA8AVzJgtp/qO4MuGWfvh/ATQwJgVImdfcCANqrqWzeu85+oYa4YP6/iSnxDzL8JXXySb9F8QgPCA9EzQOdfGQItMz/9iMKsXld5Ze77pae6tsAHI6Ajw9nWdQu9QIAGNL36IMBVQfApdt5zD7I7S/pfUUARi0A5f3Cg0nmgd5z1Z0BAQSQNvhapvwAn+xQW5TuO6pvAfhgOoteO18xIyARHdJX3/pPOHZKzemiD5P3Pwr7JHniSd9F8QgPCA9EzQPDFjfQ2xO91wmwr/6tz20H8FgB+i9WAwCwSutmBBy6hAUAULqe/u+SVgAi+iN91a3/BJ0MgBxV/1DSV6r6ifCLWvjJ+4UHhQcaSHcb4NWxTcr5bOzbAs+OUfcD0M0IOJvLEdCkG8oBgLS++tZ/wsUmNUKjhCPqOdsHTeVzNXv+D1nUQO9MbqKnRzTTg4OQRCJHvx7dTJ1nxit9MSqA1c9spBdGN9OjQ79q5zMjm+mDqY2EPsRF8MEJFPR8flQzPT4sRw8MCufvwcE5enJ4M705sYn6Lwg/+2T32Rep3cQmenlsM70xoamYBwNjFpdxCbsd3edcpLcmNdFLY5qLdUDaT22sqi3CgQsbqOP0xmLbIRuKvDwwVyyvi88499qEpuI1SMQTNn3Lva/HLL1tAFgCbmOICEBlPl8hgLaSwhv36FkBUBnw+q76ui2doRfLAYBn9dW3/hNUSwBv2sdj6nl7UvUV+hmyuKGo6MvVyr69d57MGNQxaD+tkW7tWdqpBf4Xr4xroqgUzoAFF+mlsc1l26gCLFXvgUXqiWE5QrvKCUrd30DvNyY20U093McG4/LCmGSVvn5vaiPd1sudHkh3jnGJa6QQQP8zoy7xsZ/SuVkq9vnZkfFYOAC8WOZ81eNjQ3h0w5YDalvTuqWBsYXQdqA7H/qRK6kMDS4HAAbqq2/9J5xRLAE8Y53+PgnyGfSbH6yg1RXUzvuxQryzt7e+o3+vjI3Ov+H50c2ezXH39c9TmKsRWB6eG9VcDP/0M6nCuvbn3YNLR40tr1/288ZDt/QoUM+51TVHnHOm0ncAaljPvIztdV0KxZVzpWeG8Tt4+PUJTSVBi5f+OK8BAHptfBOBJmH0wfkOAFOVKoF2sPDK6GZPY+nsu/P7rPVqfgBIJ6zrB/DKeH0AkDZpVTkA8Im++tZ/wskzakQe/LE3AeYcVPv3m3sUImFyJ9N7/Y5JeUcf//3GhPb6Dq7rsKq209rL5/sG5EOxBCDVMxSslzZFeQ0KUnEDVES73OERQFp9v75rgfrMq00QAIWDbUCrr16OSBdufhjdNhvajDkN/vDSXpVr8GyAi+ERAIEPpug5AgIMwIKl0m/7PcOWqukmjpTAnWf7l/P2tl/6fL4F0VWuIICIPtdX3/pPOGbbO/Gz54L6zS4d9nUOe7xcCi+M5zw30r9SBY0gsLCvGUYb8Y6usy56Xvk7xzDoVMzYZ4c51/neuH6/f0Ceddxgxlbp6y/6hgPOwuJR6z3YflKhxw3dCqFarKz2Ym5he0+lzSr3YMGBd1rvD+OY0cwHAADAQaPOc9X901Zt17MCjF7GM8Z1HegHVwAAIvpjfdWt/4TmnLqjxWuT9AEATMBhMDTHO7AnrFP56u4QBXgbnysqu2ACcg/K/AhwoVrx0t7GsD/DgZKDh1DhUqf/2CPnaEdcnoEtJ5j0VccTzqJh9gWrfviIqLZX9T4A5lfHhWdF1CkOZG0FtOmvr0DfmKwGALCQXfuZHgBYtEkNqDvHOG1Syg0A/Fhffes/oaFRncDPjVGfuBaR4PEc5gTWeRdWrla7VY94hk4bvNwLoaq7wv5gGr+igXe/UUUrf/sYPzWCR9HAScz+XL+fAey88EC1XFPkCcUS6KDdz7oXQtmyGurDR8HvmPq5/pEhOUJbgh7fbrP0twAeGayvQJ8fq66fNmlGAsCHgCMSwMjQg24A4H599a3/BNUIACCsJ0boA4B3JwevELkmC8Ln/ExWt2ux2gk650Gn6Y3a7YSi4qIbntNzzsXYOvu5jZPzHPbsOejxCwX/EXtbkGUN+88cbYnDMx716Phnp4Hzc9C+EXD0u4dhNetst+p3OOsGnTW1x2z9UMDHGeTlkyPVAcDW/XoWAACA+wbo6zgjSx+4AYD39dW3/hPOKdYAAAB4aIg+cToEsNIMSrDBQU510trvA5AIqo14LuKn7e9T+fzwYL42QmHd5dHjXaWtYdyD/WaOMYMzn257AaY42hKHZ/h1hnSjXacAnQGx2r6Xad67tV31HGRRkJaAXpopgbEN8NQwPWsXaPPwUHUAwFET4LnR+vM1bdJ4NwAwQV996z/h9Dk1L0sAgAcG6xMHyTLiIIi8tOFuJiWGPeAghRb2KVUFi3Ufp3Pmu1P022O1K6ojIha88EilawAkdPtQK34AAIbl8mh4pVMmQADgNTTRa1s5r4P1pBK/qf7ea46+BeDp4foAADoGukblb88RfQvA+9P052s6Q2vdAMBGffWt/wTVEMBEAoC+PBYACAGEPwblaBc3ANC6Fx/dOAWon2fBgVNVmNrv46DFi6N5t2fs7QvzMwrP+BmDUtd2mx2MRQQOq6XeGZfzQflQ1QIA4AgF7LuARXaduwwAENFVRPSlvvrWf4JqEaAkAgBuM/avAyqAFCcAgOxocRGWOu3gKlaFdNE67cC9DzFuz4Sp8J3vgqOpLi3g7BoEkAao0HWk1e2bl/sRXozIEidtdb/XAgDgKAo0fjkLAKCffEDf+xoEENGfOFX38XNEU9cT9VlMlJ1L1HX+V99xPqh/+YJ6CGASAQBWgV4mpddrEFKIvTbdyeq8P04AADnPvdIjrtdByHI5miG1r24/YUVwjnk1fldJVOWkXSCJxBY3kK6zprOdQX6/K4Dw4loAANBRn+7Q2wZgCwXsRP9oBwD/bCn1k+eJ3p9BJdEmUOh7M4hwHfe/pmb1/ZUkAoAghMK9/fmFeZwAAIfJO0jh6eXZnBERHP4QACS1EAmAkDYv9C93TdsAEomhKFO5d8bxt/em8EZT1QoAWLdLDwAgEuCnnfXzPqQ60fV2AHAblPn2o0S39PT28Ft6EW0+zAsBLmrkAEgkAGC2AFiCBLHQnCu4uAAAeClXgxnVGge3I/L1c3pbw1zr9h6/52qhNgBHBAB3IrGhixqKuQX8jkfU19/Tj3chUSsAQLcqIADAnX286egKPPCYHQA8d/gM0a29/D0YpXcPnOIDARcaxALgR/EGYQEA0yA0DBW4/LSl3LVxAQAIV6swKWL9O/bruUslc4Giao8E4IoAeId55duOIYQ2Cp7HdiInUK0VALB1n74F4GGGcPe0Se/bAUD9U6P8KX+LqZ4fR1RgwgDnLqiHACbRAnCnZhIXawzdjr8azhfSExcAkK1CB0CEaGKcPwgw5W6pcrdufFHqXLVHAsCnolTf/JznjgDgyF/vp/2c13Lmh6gVALDjoD4AeHGsfiigYdKwrwHAnM30sc7Af7KLBwGcViwDDOUvAEANwJUc9ywRKuSVW9l7/S0uAAA5Hkr212P6V1REQ3+C/kOK5vZTG6lvCKWpJRKgoUhrXd7gjgAAmNBtk9v98IN5ckQzvTKuuZjP/6nhzcVCOTo1IdzeIwDgynwBuxlyAbw3lQUAzPsaAPx6HJ1yG0Cv5zrO4gEAn58VC4BXpYrrVMoAex1TXIeVIYcZr5YAAFZkfsaoGq6VSIAGenmcfjQEdwTAC0w17K05j5S9XWaVBvWo8MeVXRRgAjVAuPi/ViwAHLkAus9lif7a8DUAuKUn5S0mUTm27sMDAE6cvhIxWat7L8ekZQLkcFqqNN4cFb8EAPAJQi6Ban+ORAI0EEddDe4IAK4tPijjV8Y2e47UwJzXtQZwg6FaAQCHjutvAQz/mAUAHCsCgNbt6LcNkwqVFEG538EsiOHX/aeTBCiJWwBh7A8iNapuzLkAgHgDAIkE4LGmcUYAwNmTq8wv8hvYAZ+Xz7oWEe6kYrUCADiSAU1eyQIA8q3H0rdbpDvT98spdy+/pbP6joAFzSRAAgCYfQBse+JtNUu+CgCINwBIeiQAIgA4Yqs5IwDqmRxWETaqkqMB96gWHbqBOYoIgKVWAAD01ErNZEBz1+nnq4Beh+5v0bKe/saLki93zQ3ddNf+RPm8XhbAJAKAMJPavK/hhS4AIN4AAAKWIxKAe9XnZaXKcU0cIwA4KmhCZus48vZfcJHg9FpO9jt/gyNkEBErtQQAVu/U2wZYtpUJACAbYLqe/tU5iH6/39FXHwA05/RyAAgACM4CAH6AIBi0SE2RCQBQoxuHcvP6jCRHAqAEuF+Z57yeOwKAwzHzph76FSOxPYTKk87+un1HRsi3mJOIWfxbSwBg7Wd6AADJgFp10Zf3KZPSLVImXec2mH7OtR2sDwAamwQAWMzu9RimBQD88MxI/3uJ6IsAgPgDAA6FA370yrtxug4Ocn7kndu13E5vCM1ze4+fc3Bs5KDzgAUX6YlhubJZNJH/H1EEHO9ze0YtAYD1u/UBwG0+k/a58U3KpFtbpDN0t9uPfs49OUofADRopgFOogWAw2zrZ5yxylGZ5AIA4g8AkhwJgDr2fuaB27XcEQCPD9VvE6dTIpRy//kX6fUJTYS2PTAoRw8OztFLY5rLhha6KXOVc7UEADbt0QcA9w3wZpVx49Wvz2XowRZGln719Qmb45efcy9N0AcAX14UC4DfiXFrTwYm8DnmyD0wfLE/hSYAwB+9/PIBx/VJjgTgCLfjVrZYcfuRwW7XPqtosePgJ+5n1BIA2MKQDvjx4Syy/4UWhkm/cWMeP+fenqYPAL74UgCA30kTBQAAX2AV4KetAgDiDwCSHAkQtwgAzC2OstUPDebZAvAz14O6tpYAwLYD+haAF8awAIB3WxgZyvhR9m7XdpqtDwB06wAkcQsgKgDQqkuhaA70OtkFAMQfAGAsObaUqi0SII4RABgLxO67yVo/527oVlAKAfQ6r8O8rpYAwA4GAPCb8foAIGVS9xZpkwb4YSq3azvP0wcAZ7/QSwOcRAAAxyO38Qjj3MNDvK8uBABUBwBIYiRA+xhGAECxvju5iWVuo55EmIo6qHfVEgD47JC+BeCtyfqyP2XScGwBTNJVGD0X6QMA3UJASQQAt0QIAMAzKK7jZcILAKgOAJDESICXGVba3BEAmFNchYAQmTFUMXzXy9wO65paAgAcBYHaT2fJBjgJToDzdQFAv4/0AcCpc2IB8DuZorQAgGcQZ+ylPr0AgOoAAEmMBIhjDQDIAWTiu7ZeP9Yb8xQOhX5lS9yuryUAsOeovgWgfhYLAJgNH4BlugBgyDJ9AKBbCTCJFgAoYN2x073/+VGVcwMIAKgOAJDESIA7e+sLUu4IAEv5Io2v7vy07gcIGOIzesdqRxyOtQQA9jEAgB7zWHhjCXwAVllMonocuUIfAJw8IxYAvxPtJo8ZulTH1ct9yA3QfU75BCACAKoDAHBFAuikjfY7B3Svh0OrFz4vdw1nDQB7f1CVr9x7/f4Gp2FYeVRqA9jbFcXnWgIAHCWBByxiAQCfwgdgnV9Gcl7//Diivkv0/rrMLVD9HL2/W3rqm8y87mtHMQmc74yDBQC8cHff8gVHagkAXN+1UMyIiKyIOn/wlke+dyRXcY5rlN/jFgmAmvJIPoX88uaMRuo7j49eeJZTlql8x359EGPWe+5F7bK8bv0B6GkzIF/cGnhmVDO9OKaZfjO+iTpMb6Rec4Ppiy594gIAoGN09ZQ5q0Bw4tP5e3qkPnA1TNoCALDFjUmSeq6aAIDXHN1hjCWUWalJXksAgJ2WWSoK4+4BKZFSY1LqPLK76faRI/4cyh5VKGFhcrYHjm2vjGsiWCxK9cPLecx157P9fkf7gnSy49wG8Nq36y8BBOT76LcgHoAgLgDAKw2r5Lo9AAA7q6Sx2pPVSz+rCQD8LAZbABZNITSQM9xN8AoAuFKJWXSzjlAk7SaWBlFudA3iXNSRAHAqRarZtIcMlbBW6Ky+OUzsQUQA2Mf1van6IMXiMZUjxuH+AflixE+UWwcCACrLEIXxPQoAsE/hxlCUcRTtEgCgzmiPlSg+IgDAG00hbN8uY0mxK4agPkcZCYAVPUzTfub9TzsXlHPRg1/9vMvtWu4aAFeM62KeBE1ubfd7DmnAO3kM/b2iH0v0rDUCALzJEF9jmqGTAABHfN3kAZlX8/OSBgCu7czIWFn3+uMCALzTGCVVkZ2OW4B6fV6UkQCq+e+R8a6U9alcv3/Rxx/YcJNrQUUA2NsN/we3d0d1DoWA+oXsuyIAwLsM8cEXpxEGeNLHDbFixCDaXU0A4MZu+o4gcP7xYm71Smt4Gjv3ZgUA+Ju8XGVc7UrE6+eoIgE6fdioxYcqfgdxjgBwjhfM8F7nYBjXtepcoDCzDAoA8CdDPPLAeVgAznm8OFYMGFSbkwYAsIeKtL6c9EQec7sAEwDgb/IiAYyXBEt2GnN+5qgx4acmwOBFDcWkUro8+N4U7z4UcY8AcI4n2ovtDl0asd6fJXph9OVz3dluru8CAPzJEI/j/CUAQIPHi+PFfAFtRVQTAIDpU3fsAAAGLLxI1zHEQ1ttgRkbIUzW5BcA4H/ymh96S7Ns0ZjzGHZNAFXTv8Vv1vGGrt63AjDPrftUj3DcDDO5DvIrcFrrVPvtvK+YaVAzIqMS/woA8C9DnOPk8r0JACDv8oP25KjWZ1YVAOiqDwCs8LM3JvImHbl3QF4AgAZIfXuy99VsJeHp93es6nTnL0L1vLxX1/TvbKfXIlXVEAHgRj/4HDj7HIfviNxway/XOQEAgQCAPABAIQ4MFJc2VBMAQFIaXbrB6QuTFCE+dzGmHkW7LJOsWAD8T953IgQAYUUCcJn+nXPA4rtyyufxYfrbXoFHAJTwnOeIXnDSjOO7l7Tg5cak3G8CAPzLEA9jWgQAzR4u1FY01fKOqgIADGZ7expfbAe4JV5RHTuYZAcubCABAP4nLxLhlBOIQf7GFglQIUU0l+nfyZ9etgJ+0VffqS6MCADXcV7cUMzi5+x31N+xPRFUGmgBAP5liAd+KG4BXPRwoQCAEmjcdYKGdC2S7+iOnWUBsPqB9La6z7Tf/9SIZgEAPrcCik6AAe+pWuPtdgwjEoDb9G/nOXyutBXAEgEQoZUG41ZM2uSSKdFJizC/g66c6Zot/hQAEAgAKDoBXgiTQeL+rmqyAHA47vV0rNJgluVMMYxVAfYHdccdsceWMFA9Ymx12xHG/Y8O0e+rKo2s+4KMBAjK9O8cm1JbAX3nx7sGgDUGXo4IxeOQA07a6Xy/fyA//woACAQASBigk9GTDgAgdCBUnHTR+c7huZwUAHBNxImALKUTZCRAUKZ/J4+W2grgAIJhRwBY4+J2RFIezA9n/6P8zp0jQABAIADgNJwAT0XJKHF7dzUBAA4zptMCYAkYODjFaWySAAAAlKL0/rfGHsegIgEy08MNZXPbCkAhIV3eDroGgH0svH7GtsqdDNkNdWmD+xEFwlk7QABAAADgUirg4xwDXivPqCYAwJEYpFT5T6wqOJ7PxRe1DgCKxYAirgNgVzRBRAIUTf8RFLB635EgiMOLHpUK7fSK02fIMJjhOSxvOvMXKYy56CIAIAAAYNLRFimT9usMcq3dW10AQJ8pepXJO88RK83FH7UKACCkIazt0RhcQlPnOUFEAoRl+nfynHMroFpqAOiMH+7tv+AiIb8H+IvDYdhJ10rf7+3vLReEl34KANCX9S7jtQe1ALa5/ODLRNZuGlHfJXp/XeYWqH6O3t8tPfWJVE0AgKOQjz1j3xUTcXFDbEyKcQEAyL2ASAndvxfHNBcr/8Wl3rpz7LkjAcI2/Ttl2sODv1mxczjNRZmnwTlWXr8D7EO+ISwX/PfsqOZiOGGbgTlCbn8nzXS/A9xyFbaKCwCAjtFrP0KGAAAgAElEQVTVU+asAr01We/v6ZEs47WlRTpDa3UHevEO0v538kyejn6e0/p7YLA+UZIGACpN0K6zeHMDqPJaXADA7b35VjVeBXdU13FEAkDRoK7BTRGY/p28hq0AbG05z6t8R86MqMYlkPcubigm7uIYczs94W/B0d64AADoGF09tf9YjlZu1/sbsEg/j4Vh0qdwAlxqHzCVz7M3a+t/+vysAAC/EwUe4yrjZb+nEgBAm54cHr1DoAAAvXrqfnkL13NFAkRl+rfzOT5jK+DdyfoOgHGKAFAZ13L3oLYB53j9sh8PYK4lALDvqJ7yB3joOY8FACwBAJjnnCh+v09eqw8ATp0TAFBuYrr9hqI7fsfKeb2XpB2DFjYQR+lh57v9fBcAED4AKCaa8ZnEyDmmRdNyjJLVcOyF39KjwLKqdZvTcTnHBQKwTckRDVBLAGAPAwDoPIsFAMyGD8BU56T1+33USn0AcPq8AAC/k5/DAuAFAKBdHF7hfvnKfr0AgPABQNRjbh//OH2OcwSAXxlS6vqhixqKoXwcdOfYLqklALD7iL4FoMN0FgAwCRaAkbqDPOBjfQBw9gsBAKUmY6nzLBaA+d73MtsMYGE6JauFAIDwAQBXJICufInb/ZHVAAgpxbglbxDGx0F7AEnrmarHWgIAnx3SBwDvTNH3d0uZNBwAoKfuIPdYqA8Azl0QAOB3cnAU7oFTlNf3wl+Aw+qgwm8CAMIHAFyRACrjHed7qjECwOsct18H0/0N3fQVzcvjmj3LGPv77Z9rCQDsOKAPAF6boD8uhkldW6RNel93snWcpQ8AvmjQ965MWhQABwDo7wMAYELCq1uXX1TuFwAQPgDAeN/Wi0XQaPMMnMmMmPgScJi07cotzp8fYsgIipBZ3T7WEgDYul8fALwwhmVevoswwBdVBLL9ntcm6wOALy8KAPA7STgAgN84dKwKo1AKAgCiAQAckQB2WaHy+WfdCzRoUQP9KgbRKLUcAeAmfziqgyKKyO3Zfs7VEgDYvE8fADw+TB8ApLP0fItUhh5WmZT2e54cpQ8ALjYKAPAzIXAtR6pPZAvz+976GY2hr8YEAEQDADhqAthlhe/PWSLkuAePFvMJ9NAXfL7bYIuEiEsNgM4zG+nF0c3FUE04JT4+LEe/Gf9VngO/87nc9UgWpEMv3IuIgnLv8PJbLQGAjXv0AcB9A/TnQcqkti1SWbpdd4DvHagPABqbBAB4mQj2azhMogMW+gcAaMOjDCV+/fCdAIBoAEDUkQBY9dt5PhsB+LTzadQRAEjMVS6VMSwUKL89QAHY2+lsfX5kiH4OENkCuDzB3frd+gDgtl76IeCpDN2CLYCr7Qyu8vnnPfQBQHNOAIA16bweVcbKeY+qoMB913XVR6HO9pT6LgAgGgAQZSSAZfp3zocotwKijABoN7GJvG77/bx7gTB2Ttr5/Y7nlJqTXs/Db8jve53X15IFYO1n+gDguq4MAMCkdIu6evonrwNZ6rp0lihf0AMB+Txpp1hMmhNgqfHwc37gQnXFAoHk51061woAUB8npzD18z2ySACb6d/Z3ii3AqKKAHh/qv8yykjepbLFZ9Hb/JAnDJCDZrUEAFbv0AMAn2zjqfRY14n+vsXVHejPdASzde/pL/UAAPCDbo7lJAEAhOhYtNc56gAACIqid7Ztj1SnLeXuFQAQDQDAGHPnhy83ztZvTtO/pZSsY1RbAVFEAMDapprB8N4BeaVMfJAvdyHygmFuw1/BGjfVYy0BgJWaAGD+Bv1tGYxrujN9v0VdO/qOYVJed6B3n9ADALj72KnL90r8AgIBAP7NQkjzqzopcV/POReJIyFRJf4TAKA3TjpjHHYkQCnTv7MPYW8FRBUBoJuSWSUO/9dM4b6QDcgq6Bw7v99rBQAcPqm3+kcdgMkrWYBZrvVY+nYL/DNMOlFJAFf6feUefQBw4rQAAK8TA6bZSmPi5XeEV3l9Z6nrsC/q5V061wgA0B+nUuNX6XyokQBlTP/Odoa9FRBVBABqD+jMHUQLvTzW2z48Vv4vjWlmiTBCm+Gw6Bw3le+1AgAOHtcHAEOXsACAo0XlfwkAbNZhMNw7Y6M+ANCtCJgkCwAXABjMAABQQUxXSFXiPwEA0QGAMCMB/IaMhbkVEEUEALboOMJ9Mb/u658nRBGUUsBdZjXSPUxmf2s+czgAor21AgA4SgF3m8MAALK03g4AFlgDpnoc+ok+ANAtCJQoALCIxwKAVVQpgeDnPGK1uQSVGw/GBQDAseq18U2B/705sYk+mNZIXos1+Rkrv9d2n3NRawXqNp5u537e7auEP37bF9ZWQBQRANy0xxxt3StfTKoEq8ArY5uL5b5xzm1MdM9hi9DveLpdXysAgKMQ0HtT9SxCGNNUhubaAcAI3YHOztUHALr1AJIEAKC4dccM93NYAKwJ+9BgHucUt35xAIDiapHBqcmtfUGdg8C+o3ee4AVu0TnsYxiRAOhnx+lqfQxrK4DDm93v2PWcGw74CoJ/ucz/oFmtAIAdB/W3AF4cqw8AjCwNtQOA9roM8OokfQBwQbMeQJIAABS37pjhfpjv/QqlUtejsFCrLgzM6aKkOQAAViMcNIvqGaABl8Wm1BiWOh90JIBf07+znWFsBUQRAQDwFYaTbRA8/fYk/SqA1jjXCgDYypAG+NGhLDL23a8BQNqkJ3QZ4OFh+gBANx1wkgAAlwWAw0PXmqQ4vj4hmNwAHAAgjJWs7jyqdP/d/fKEfthpHsbnICMBiqZ/zWgU0CDIrYCoIgDQr7BCbSvxnp/fb+peYOXTWgEAHGmA7+rLAACy9OjXACBl0s/8DK7btT/rrg8Ampr1sgEmCQBwWQDYlcniBrqzD/9+IgcAgDANaq/TbU4Ede5ZhupqfkFDUJEAOqZ/Zx+C3AqIKgIAfQzTCZOLZ99iXP2DBrUCANbt0t8CaNXZf7i3c1xTJl33NQBoadIPnReofD/XoAcCkE3Qb+y//fokAQDE76uMkfMedgCwpIFgKvWastTZnlLfuQDA0yOCD1ks1Qeu8zAJ95nH41zlVKKlvgelhHRN/872BrUVEEUEgNU3hObB8sPFP0E/566+asmHrP66HWsFAHyqmQRoAVMSoGIWQAsBpLvTH3EwxbajegAAd+skAxIA4B8ZDg/InMytaLkAALKScfB61M/gCq9yE7Zu57i90UE/LtO/s71BbAVEEQFg7xfoXw2+ANfUE0sNAnvf8bkWAABHEqDxy3mAYMv29IeW/i8eDZMu6Aq1hdv0AcDJM3llK0CSAADig3XHC/djdeGcbBzfYY5FRjeONuIZXAAAfbu9N88k4uqbynPu7suTYMXrWHP7T3Ca/p19CGIrIIoIAGe/gvKvUeG/Uve8MYHP8c/e/1oAABw5APouYJFdZy9T/vhimLSx1KB6PT9ihT4AOH1OAICd8Ut95gIApZ7Pcb79VL7VNicAeH9KMI6KXucJx3Wo0sYxRn6ewRkJwG36d/aDeysgiggAZ5/w/VGG8rwc/Of2jMeHXV662a39qudqAQBw5AD4YDoLAFjjBgAmuQ2qn3OdZusDAJ1cAA8N0V9xdpimFousytiq93FEAcBcp/p+r/fdP5AnN8DDQ3iFSzXtqbrNwRu6hQ8AuCIBgjL9O3mSaysgyggAZ59gsYM/ghtPRHmuzYBgo1N6zb1Ib45v0vp7api+/8/DQ9Ud1XfGJwfAODcA0EmXgZ4dow8AvtDIBfDECH0AEAdTn3PSl/quG3N/U4/glQic1a5l8Fp9htnzHTkBONqlO2dU70dyoFJ8EdT5F0frC1CY/jspJvzx2y9EyoDHVWls3QfLh993B3k9+nXfAJaVoDZtQCMofyxIguxzj9n6AODxofrA6Vcj1AHA1v36EQBtB+nzs5GlD64EAFl61GJ41eMtPfUBgE4ugOfG6BMnqD2sICYHJp7qWOG+R5hX1aX6+Mo4fcURRCa8omd71r/jpA7Nue59coS34i6lxkTlPNI967Y/aNO/s18ZtFlzjMNus7MPbt/hk4H5qzseuvc/OjTHGu/v1lec6zarUWv1D+vBIwyZSp8fqw4AOHIA3NCVQV5l6MErAEC6nlrqMgPuP/OlHghozqmHAr42SR8ARO3tW2oCuJ1Hpi2dMesQ0koMwkon/h610DkzFtpp+ZvxTYHWMNAZn3L3ctRYt9PBy2eYn2G+L9eucr8VTf8BrxTd+qG7FZBlqGfv1i6Oc+Bf7pDbcmNo/YZ3wimRow9entFlhr4FAMWQrParHt+YrA4A1uzUswBwhQC27ER1VwCAazrRf1Eliv2+DQf1AADuVg0FzM5WF05WHzidzbwwttY1ixvotl5qfb6rX7gmZCgsVUH16rhgBU27SU3Usp4BWbukMLb4ivPYZiCvP4QfHgStVPoSpunf2R+drQCY2p3Pi9t3OCgGkXyr1Djf2TtP3WeHm4ciM13fAsAR/dNljhoAOPK5nvJfuT1Ho5fpAxiMaV0H+sEVAKBdO/qWYdKXpQbd6/lp6/UBgGoo4OCP9QkUZcYvFcGCye93Lxsr6l4hJ5JB3xC77pWPrOvu6c+fVMSNzvUzG1n2i612B3VENULUXHDrQxjnik5og/ybnqO2rKHULZxe/YwLHC3jUI3R07gubiBsX4I//PTRz7UI60WVyqByh5Tr5/uT9QEA5J6f/rpdO2ypWpQaRwhgF44ywCadb0F01RUAACcMk9a4ddrPue4L9QHAmfNqRJ65Th8AYKUSpYAtNwlK/WZ+2EhemRsCAsKw1LOCPg9FABp74al7B+RpUIgmY6wUnx/V7BtQeekLxzXIr46EMEGPUaXng06wQnjtE5JCBZVvolJb7b9jFenVcRbbFXGgtb39Xj5jqwzlqlUtg25jiu07gIugtuEq9Qu889YEvQiAVxgcWEGb2evVdNOuw/oWgN9M0AcwhkkrXZU/TqZMGu7GAH7OvTheHwCoRgJs3u9dKJXr01uTgzU5V2J4ld/hbV8sx1vC4Qnm98eG5mIBblD2tZyAuq5LgV4Z1xSZ0hiw4GKxTrqO30I5/vL7G7YnsI+NdqnwRhD3QChjD/iGrqWF0i09C/RBhGWM3fqNeVIMZywxT2AlAK2RZ8Pt/mo6h223Z0Y1F+eaV9AN3sS14P3nRjZTFL4mThpjLHRDAB9jcAAEbbYeyCklqtvGEAHAEeaeytDgkgAgnaFX/Qon5/W39NIHABeb1PZZUBcARYmcbfL7Pco9Vifz+/0OAQfHoCeH5+ihQbmiMHtjYlMsFL+9L1AgcK56YUwzIcb/4cE5Qqjfe1MbI1tp2Ntnfe47/yIhNBTtRKITKA/4iQT9h7F7akQztZvYRAMWxkfxW3SxjlgVQslj7B4cnCuCUBQOglUqClOx1a5KR5j2sarFPMG4wkqBAjZxAlmV+uDnd9QOQfglrAMoJmXxMvgMn3EOvyHSA9f6eXbQ18LfQBcA3NazNFD1qh9u6qHuoM4RAXBjN33dlsrSr0sCgFSWfu6VGOWuO3leDwTk8uqEfnqU/kBjxdU/RqutoCeYPD9eAk/GQ8ZDeOAbHug0TW///9WxPJE+CDO3F5/z83m1ZgTAnHU81u1UJ7q+JAC4uiP9dTnF7vW3T3bpAQDcrRoJ0Hehvh8A+hl2sRWZ8N9MeKGF0EJ4QHgAPDB0SQO9PVEPALQdwKM8+y9W2//nKAI0aAmPXkO0X0kA0HosfZujKNCw5foA4POzasReup2HUHCqg7OTCCKhgfCA8IDwQDQ80FszBfDr45roWp/RH6UWust3qumkfUf1HQDfn6Zv2TZMOo9ov5IAAD8YWVpeigBez785VR8AnP1CjdhAW9ir8drWcte9NLZZAEBA1QJFoEYjUIXuQvdq4oFO0/S8/7lW/7f2JDpyUs0BkKMGwJPDWQDAx2WVfxEAZKhXOaXo5be7+usDgAsaNQE++JCFWMVwMDjVVdOEkbaKgBceEB6oBR4YsugitdMI/0Po39Uloj286DH7NR1nqO//b9mnbwG4uSfLorZrRQCQytDD9o6rfEYYydkGPRDQ2KxO8IWbebYB0Pf7qyATWC1MdumDKC3hAeEBOw901kj/+wZyIfTk0wOLt6hZpOEouH63HgBYsJHHhyGdpQcqAoB0hv5ZRek771m+Ww8AFArqkQAw1dzRlwUxFbcSEFZnZ0z5LIJKeEB4QHggOB4YsviiVvKfh3wkqnLqLuf3u/oRIZWvH6//r689maNV2/UAwBAmB0Cjnv5HRQBQ145+xzCp2UkEv98HLdUDALhb1REQxIfHpt82l7oeSXSyM6LLnieCJjhBI7QV2goPxI8HusxUj/1/dkQzpZlM/9AJA5eor/45UgC/M5VlS7uxVVf6bkUAgAuMLK0vpQy9nn9hnD4AOHdBnfCfHc7RTxnq0Fv9RQrRsAtgiGCKn2CSMZExER4IlgeQ+a/deDXnv1+PavZd88GS8W7HVl2IkMb36xW9T0sAhwPgg4P1AUA6Q2s9Kf8iADCpnxsx/Jy7oRsRzPg6/xoa1f0AMGBw3PDT5krXojiIgIBgJ78IV6Gv8ECyeaDDVLW4fyj/n3bmlfnmLD0dtGmvnvl/xbYctWJYyKZM6u0ZAMBZoJIy9PL77hM66p9IJyMgAMDWg7xWAPQZlgDZDki2gBIFJeMvPBAMD/SYo2b6h9nfb7XHSjoMq//th9RX/9BBuhkAp6xi2srO0v2eAUBdJ/r7SsTx8vv0DXoAAHcfP603AJn/v73vAJLjuLIkpZO0RntytyutC5329vZWay72lnFxoRW1mq4GQFEiSJEiRJEiSAKkaESJ3oESSUiiBTp7QBjCEN4RHiDhvSHswLsBBt4NPOEJWz3/4g2myEKju6er8meZro8IRHXXdGVl/vz5/8uf30zjRYQYN3wCTNeoFwFjRsAIXYWuwgPR5IF+c855DvuDtz8c/jjP/B3dVj1Db/dff0Rv919TZ1M3nhLA1KKavl02AEC2IEvRSYcQfq9vTNUHAMd9lgZ2zmx2HLDpVqbEQPl0uK9fjiRPQDSFiQh5mRfhgfjwwOD55+i18d7O/V8YeYk4ivzky3V8R+KfnQf1Np87GUoAPzWCZQN7/Bqia8sGAPihpWhWIcJ4uYdQPN1/fksDOwAA19E1TGaUAnXskWby+ZGXaJCkDZZQScmaKDwgPOCZB4bMP0edPBT8QXpfZPiDJdaLPvLy2zE1/h3QHd3DUQKYI6ttWtE0T8q/CQC86oVgxX5bf1wPAugkBHImAjGcHFUCi40R91E74NmRl+hdqSLoWQDITi0+OzWZK5krTh5AWXA1qTynP1T1g+Lnyu1fTJ4/OaLBf9y/K0pg7Xa9I4Apq3gSAFmKOnoGAOks/aAYgbzcn7JeDwAgkuCQi6iOUvd6rd1rU+vu5hCjQxOgUhwNoLY4aslzLhZpS4Sv8IDwQMXwwPxzlJ1cWvkjne8jA+3GrH7IMOvIWVPXm7sTbdqrZ/pv1E1HbarZogcAus/ksVynq6mFZwBwY1f6rxwJgV6fogcA8LROQiA3UJiwkoegXpjvth4NdP8Am5587xK9NPYi/WHCRXpr4gXqNEn+Cw2EB4QHkssDHUZeoseHXv7/2JBL9Ohgmx4cYNO9fXP00165RquqF1mr+1sAjA9W6Zv+oXN2H9JT/nAAZDr/v9iqM/2pZwCAB9KKlusStU1vfQBwWiMhkBsA4DPiOnXHJM+bR+JCY6Gx8IDwQJA80GWmnte/W9fU7dMHABzn/1aGFvtS/ngopUhxTMCeY3og4MJFvolBueDHhgsI4JhXaUMEtPCA8EAl8ADO/aEb3Epc57NuAaBJK3nO/1OK3vIPALJ0C8fkjl2lBwCQUPDQMb7JQXhH+wECAjjmVtoQBSA8IDwQZx5oN6CBth/g0y8AEss1z/+z03iOq1OKfugbANyQpa9ainK6k9thnB4AwNPHT/GczTiobku9TXf3lYWrO7fyvPCQ8IDwQFx5AJX+dLP9OTrFue48oG/+f3gwywbVrqqmL/sGAHjQUrRKd3KRUvHCJT0Q8PE5vmMAZ6Jq9wgI0J1beV6Ev/CA8EAceaBtPyJEhzn6gOtau1sPACyqtekGhvz/lqIaLeWPh3GGwDG5K3bpAYBLNj8AwISj0tMvBrGgLXEuDCBMh4MXpQ1RWMIDyeYBHAHDCsyl9N3trN6mBwCGLuQx/1uKXtUGAIgh5Fgs78zTAwB4+ohmXQD3JLk/wyfg6VECAjjmWdpItmCV+Zf5jzoPPDOqQTvNr1t/uD/XH9ZT/gj/e3kcjy5KZen72gCgqiP9kaXorO6kthuoDwBOnuH1A3BP3IGjNr09o4GCSDahS0t5XoSs8IDwgPCANx6AbO82s4Eg692yn/Pztnp9AHBHL2/jKsIHp9t0pM9rAwA0YCmaXuQlnszeummBz10wcwzgZoCpa3LEEn8p5nBPvMHBX9IGi+CQeZO1W3E8cNs7RNPWmttAOjpk/S49AMCV/jedpUksyr8JADzDIVxHr9CzAuQayBhycyYQV5wNPStHAhUnBDh4WNoQkCE8EC8eeG60ufN+t95AzZkVW/UAQOcpPOf/KUWPsQGAqs70LxxM//gIPQCAp7nSArsnrtjnSatzdEfveDE7xzxJGzLnwgPCA3HnAVSjnbzG/K7f0R8c6X/b9Wc6/+9C/4sNADRZAXbqMgQK5Rw/qwcCTp8NbkIxsXsO29Rzbi6QQkK69JXnRWgLDwgPJJ0HUPSt19xco+x2lHMQ17q9erv/OetsSnOUOM7SFlbl3wQAunEw1tQNegDAVDhgcwyy44BNPWY3UMtqETAcfCBtCB8JDwgPcPIAZHOP2TmCrG5Onpv4u274Xw+m6n9WlrLsAICrPPBvJ+gBADx95EQ4EwymeUByBohvgDiJCQ8ID0SOB5DPxYRiL6fNvQzhf78cwmP+tzqTxQ4AbuxKX7AUndZFbMgK+PEFPRAQ9DGAmwE6T2WaJBEgkRMgurwtz8uOVnggPB6AbHbL6iA/65r/F2ywqRWPdfnkdb3pc+wAoOkYYBwHg8+s1QMAFy+FN9EfrOTx0uSgo7QRnrAR2gvthQeixQPvrwrWP8wNMNZs1zv/7zmLSa9kaKQR5d8EAO7jYPoXx+sBgMZjAENZAd2TWujzpn08ZRpv7UF0/8AG+V+EBhy5GNBGkmmM2Gfd9Yo2kkxDDj68JeF82Bz/QBbq8imeh2wuJLNN3+Mw/z/CZP5PK7rbGABAZSFL0QXdyYKp4+Q5PRBw6uPw0N7P+ugzLPIMmGbMOLffdab+UcvLE5JN4+oZ+jREG3HmI92+vzRBn4bZhNOwuTlAal5dnXJXn2ByxBQay5Z9erv/uettasnh/a/owvVv0FeMAYAmK8AM3cnC81PW6wGAMI8BXmEQCjd1I0Ld6EIMJfdsGr5E3yQGVJ1kWgoA0F9fDzPszIYsCm+zEnX+hwxs3U1/QwWZHNZYdc3/3WboyzroVNbsf8VQRFrRQxwA4NkxegAgzGOAYYt5JmxRnQiGYot2xnp9Gv/knfB2BcXGFeR9AQD6AIDjGAXpxYOc9zi9a+Fm/XUOfYQNQxjj3sfg/f/AQH0LSKNOzlK7Ynqb7X66C33dUmTrggDEbH50Rg8EhHUMsHwbD9P2mRsO04axULy+c/VOfV8LFP9AIiev766U3wsA0Jt78A5HcTDIi0rhKe5x9J7HI0tXbA+Hxrrm/1lrmZL/KLqU7k5fY1P0pRqyFM3XBQB4fpRmbYALIUUDIOczsk3p0uDx98IzW3EvZO72uITvqh16SoB7XEG2JwBAb+7BO7prHM+j3HiQ8x6ndz02XH/3C1lsssJfKXqu1fT+58r9bymaUUpns/7NytKvOBbG/YP0LAB4+nBI0QBPMziu/KALEUxIpRgsyX/jML8GUQEsqnMkAEBvbYF3dOUclFNU+SPsfkH2QQbq0hhOhGGMpf6InvNfTZ1NHA7loF8qQw+yKvlSjX2vK/25peiS7sTh+bqDeiDgdEjRAP0X6AsHjH/uxnBMV2EsGK/vRGYvXR5LsgOWAAA9AADe0eW/9gPDUU5e11oYv4fs06Uvnh/4YTgyVDf5z9hlPONHZF5g5n8HGKQUTeWYvG5z9ACAbYeDsGu28kwe6guEsfji8M4OY/UBgJqWXPoKANADAOAdXRn3/Ojk8l9zMqb7LH36Yn7COv9ftU3PAvCbMTzjTyua4OjlwK5WhtrqLg48j0Qbl2w9EBBkiWCHqeEHwJHAIumhag49C12z0/UXSJIFsAAAPQDwAoOA7hRietpCaypK9zhCLBHpA1kc9Lh2H9RT/os32fSjrvrHH9ChaUV3BKb4nRd99y36M0vRxxwgYP4WPQBw9nw4KPul8foKCiWSt+8PnoGDXjB+3sdigh0QDm/4GS/3MwIA9NYVzPe68g1HhdzzWgntbdtvE2SfLn3DSva1cZceAOjHFP1gKTrVujf9iaOXA72mFI3QnUA8/5xmToCGBqJDx/QWu59FNWIpzzHA+BUiJArRf8oaffoi4VKhtpNwTwCAnkzgSFAzcbWs7UJrbexy/bUN3TG6Jnj6IuJg+RY9APAgg39To+7N0uBAlb77ZanO9CMOAIBY233H9KwAJ84Ezwgb9/CECYWZxarQ4ozKPa58C0m1sAgA8A8AwDMcsm3p1uDlUlTWb6l+cKRYxvzU7vE/x6X6V+pv2+v1lP/UVTz5JTD+dIZaunVyoJ/bjKLPWlnay7FQ+izQAwAXLoZj6r3rXX0zFoqFSFrgqxcy4qc5eGvJlmQKYQEAV/NUKcHu/ht4hoP3YOp2tyuf7UZZB5mnS9+7+4Zj3Vu7Qw8AvMxwdNxIuyzthQ4OVOnnv8xS9KbuROL5W98huqjpDHgkhJwAb0zWPyfE+D/cnEwl1ZxA5DDDooRzc++pxL8LAPCvfDnKfv/w7XAUVNR5ecEmHj3lKPwAACAASURBVHD15uTgN326lf/g/HczQ+0D6Iy0ot/n6+PAv6cV/YOlqIEDBMzepGcFOHM2eIZADWqOsSMkJuoLN4z+tRugD7D6zhMA4JdHASLCmPew39l3vv66vqdfMmnX3NxxVPoEP08Kwb9i8x693X+v2fp81bSWG6xO9D8CV/iFXmgpWuhXwLife2KkHgCwc8Ej7h0HbEJ5Y/c4/Hxun2Bv9VIC4zmGjIuvT0qmIBYLgH8LAIdl76mRyeS7UusZf+OIrmjZJZwUyyu36gGAdv31NzRN+mVeIV0cyr10lu73o/QKPbP1sB4IOH4q+N3erxnyWcMRctM+/wKruUUX1793mqK/YJ4ckUxBLADA/3oCzxSST17uAUTEdd2Z6vemvTwOcKghYKqPxdrdeUBP+Y+rYdv9U0rRPaEo+0IvrepBX7QUnfSyOIr99s2pegAgDGdArrTAKDNcjPmSen/Ah/qL5s53g7cMRWG+BAD4BwAczr04RogCH0SpD1yl1MNI/7tO0/nvKQZQ2aQ3j4UW+18IAOBeOkM9iil1L/dbdSE6qlkm+OgJ/wvfz2JZy1C6FjR6QqoDXiUwOQqypLPJLAssAMCfHICjF0eSmslrBADky1OO6n+QlWt2+Zvb/P6U+13X+Q9lf1syHBU36tIsdSmmh0O7n87QP3E5Aw5YpGcFCCMzIEJSvACdQr+FL0FSY9aLLUQucLUsgfHYAgD8KQmuOh9JLkVdaD0jJJJDCYbhXFm7W8/8/4f39Y+UHJ2RytI/h6boS704pehDp5M6V5SBPX/JPwhAZsDDAWcG5MhbD5qFkdmq0GKNyj3kR4BVSIef8GwSsy0KAPAHAMAruvwGRVcvpb6vsOiNZKp+B74OUj7tP2LT8jr/AGBRrU03MeX9T2VpbikdHOrf0hn6ue7CcZ6fst4/AMCTQZcJ5iptGVZt6yAXlNd3te2nDwCSGGYpAMAfAOCoUndXn2T6nZRa208zRPRAP8yrDfZoZcs+/8q/ps6mbjP0AaWjF9NZ+lmoSr7Uy2/sSl+wFB12OqtzvW8AEXbyfv8FHRJYf8Sm1t31FdUNIYW3lFq4Yf/tudH65rMXxga7awibZni/AAB/AICjDLWEAF5Je2T15LDk3dw92KypyPuvE/q3bLNNP+2lrxeadOnBNh3p86V0cOh/Q3YiHcXvfnaBZpXAE6eDRYoc1QEx/iSaq0spzOwMfQAQxrlhqTEF8TcBAFcqoXJpDl5xyyE/nzPTkgc4S9F3LFMIXNB1U+CThV283/9IQuaHf4o880roCr65Dnyvmv7SUnShyAA8EeORoX73/5efu3gp2EXIcXYIuiVxt1pKeHBUXUTiEFhpSr2n0v4mAMD7fINHwCu68muohPResdZeGKMPqjAnEwJO671mu3/lD9DQti/PuC1F59Nd6OvN6d9I/N1SNER3ATnPr9ilBwI+OhmcFQBmrh8wCI8b3ybafci78Ko0BeaMZ34tD4pOmle2AADva2g1U0jv7A3ByR1nnUT1ClnGIRfRxq4A5eKeQ3rKf+hCHrnVpAsHREK5l9MJq5r+3VHgutenR+sBgHPng7UCPM9wXg2aoV52VBd00P3aUs9TFTBptdkFAHgHAOARXZmF52v3en930OsqqPeNYTL/B20Z3bBLDwDcP5Bt909V1fRv5ejeyPyGKyQQi2njfj0QEGSVwHHLeQSIOBFdKUA5HCx7z00WqBIAcCUPlaPwwCO6AABVAA985P3d5fQvjr/hSKuMOZmwIrj1u++wTcu3+AcAo5bq85HDh5EO/SuGOFIZus0ZgO61wzg9ABBkYiCuYwDEEWPnG8cFb6LPDw7WR9MvTwjWGmSCDl7aFADgff2AR3TlFYrdeJmnSv5tXT1P8p+gzf+6iX8eZpBXn/BhlloX07ORvd+xI33GUrTxk0EoPcea9fv0QECQVgAuh5dBC4NDvFEXQvD+1eUlmOSiPk7O/gkA8A4AUJVTl89+My5ZfFaKZ5GzX5eeeL7DmOBoCkfQGo3d/2jG3b+lqBa6NLKKvlTHOKsEPjdGDwB8fC44BuKKBsCut9TiStLfejKYZrGLQFxvUugmAMDbXIM34ICrq7CSmHSq2Jp6YJA+oMJ8BGn+1939P8g0Zow7UlX/Sin7Qn+7rjd9LqVoj+6Ccp5fs9c/CEBOocPHvQmEYkzd3H14vXIIEowbXsnNvS8Jf39/Jc9OYsPu5NBTAIC3uV6/m8fZFDHvSViTzY0RBXsc2a1zDdL8r7v7H7WER0410itLeyOf+KeQ4nffsxQ9ozP57mcfG+EfAODJIK0AXMcAPWaLFQCChqtAy/S1yRHOAgC8AQCOypOQV4u3JIfHSoEAjpTKoGeQ5n/d3f8DjJ7/6Qw97talsfz83bfozyxFx92KXOfz0h1Ep875+3/yLNGOg3ZjxT1keDL5n6vuNWrZm+xnXNretNemtKYfCfiu19xcYujZaaq++RVtxIVHdPsJ3tCRTc6zsCTo9qUSnofscmiicx2+JJg1i5z/8zf4/z+Yyd+hkVYZOlrVg74YS6Wf3+lUhn6nwwDyLM9CEjoKHYUHhAeEB6LPAylFL+Xr0dh+b/EmfYnTCiAMHH0GljmSORIeEB4QHvDFAyeqqunLsVX4hTpuZegPwgy+mIHFjCa0F9oLDwgPCA9EnwfSWXq5kA6N9T0gGrECRJ/5REDIHAkPCA8ID4TGA5W3+3eQSypLrwljhcZYYklgcCIU/hX+FR4QHjDIA9Ev+esodK/XdHf6mqXopEHiiZITJSc8IDwgPCA8EEceOFZxZ//5IMFS9IoAAEHQwgPCA8IDwgPCA5/yQEpRh3x9WXHfEdtoKTooE//pxAsthBbCA8IDwgOJ5oFDyJlTcQq/0IAsRU8Isyea2eNonpM+i1lZeEB4wAgPpBU9WkhXVuQ95DdOKdohIEBAgPCA8IDwgPBAwnlg541d6QsVqeyLDSqlqH3CJ90IkhSaijAVHhAeEB6IDw/EuuJfMQXf3P02o+izVpbWCqPGh1FlrmSuhAeEB4QH+HggnaHV0IXN6cuK/HtaUUqYiY+ZhJZCS+EB4QHhgfjwQCpL369I5V7uoCxF44Vh48OwMlcyV8IDwgPCAww8kKGR5erJiv1dupr+zlJ0XhiKgaHEQ1f8KoQHhAeEB+LAA+eqqum/V6xi9zKwlKK3BAAIABAeEB4QHhAeSAQPZOgPXnRkRf8WCRDSivYnYuIFnccBnUsfhU+FB4QHTPHAPiTEq2il7nVw6SzdzwkAnh5N1ED+/uUaiA4ft+ngR2b+D12cY2Oscctzxvppavwc7T46rEGbhj/oQlR/2Mwcc4xRt43qGfo0Qhu6/Yjq8/uO2AQe0JU74MWojtFkv8Yu55Njwxabk2P1R2xascWmmjrv/5fV2fTwYP115OaxtKK7verHiv99x470GUtRjZtQup8nr/MHAPDUufPmFvWewza17q4veECftv2IDhytXCVWTIBlp/MsykV15gRPsb4HdV8AQOl18eFmHgWWrWCQVIxXD3xk0739edZg625Euw+Vnqti/Sjn/oZd3hW/Axa6zeDhkU90WZaWXkN0bcUrdD8DtBT9h6Wo4RNiaZqgbupGdOiUfxBw7JQ55dB5Ks/iAa0mrTHXz3IWWBi/eX8lz8Lsv6ByaScAoLRSwdxzyJoPVlYuDxVb2xNX89AO9M9MM7fZ2n3Qv/KftdamH3Xl2ag18VlDiwxd70c3JuYZK0MjORal08YzGkcBtk10yNAxwNqdNqWzPMz1wCBzC6iYAAj7/obdNovw7jC2cmknAKA0AOgwhgeE1+4p/Z6w14qJ90PmODJW55pWRKt3GqLfUZtWbfMPALhN/1aWBidGkfsdqJWhb1qKzuowVf6z0zb4twKcPmsO3T85kmcRYbwz15vrpwkBwtHmrT30AdTtPaliz28FAJRWLD95R59/bnuncvmn2Bqdvo5v9//0KHMAvG6vf+XfYxbfGJv00WkrS3/tVy8m6jlL0fP5SlznO87bD/s8CmhoIDpiyCFw2lo+JkuiIxKEhw5fOM/CmlBM2MX5vgCA4vO6bhePBek5gwosqrz3yFCedYf1N8PQxmXfYZuW+3D6w9m/AdM/5NQTiVLiOoOt6kj/xVK00hHQHNcXx/u3Aly4aAalwnnv5+/q70Ic+syvTZYV4J05PAAK3sxRFbY6/RIAUBwAjK3h4Z2ecyuTd4rx3bxaHrpBZt3dlwjOhMXepXN/3Q7/u/9HhvABnCbZvCyx+f79AgGrmv7dUnTJUW4c16kaRwEnz5hZ6Ah/4Rgb2sCRgs6iiduzXKbINyZXJt0EABRXLphzjnVnagcb1bX4xHs8dAPt31tiRqZuq/ev/HvM5JPHTfx1sUWW/tWvHkz0c9wZAuHRue+YP0tA41HAieICxe+C3XvYJo6zbDAbHGqWbjWzqPyOz+Rz2/fbjWPWFeTtBwoAKEZDgAiTcxhW2+0G6CsyOPGCB8MaQ9DvXVzHpxzhfwEzPfcYGk3/PmP+J6/iyQuRt5ZeTbQS1xn8d7L0x5airXkE1ULujwwjupTzBwIuXjIjDHvN5VtYz48200fuhcrVHsyIuvzRsppol8E4ZK6xem1HLACFFczOgza1YIjAuadfstbas0w+N1ivfQwdnaz1afpfssmmtn31QeEVsihDm6s60h/p6MDEP2t1JoszNwAm6N0P/QEAPHXqY/4dNnYRP3xbX5FhbLACVHJym3wl+IeJPIt21gb+ec3va9DfBQAUBgAw218hqH3mG3ltUnIAAFfSJNAdltjtBwrPjc4a2brPv+n/dxN45IiLrxqsDP1n4hU4BwHSivq5CKu9eGG6W7XbHwhAeuGjJ/iVRSfGxEC/TFBq0lHLeIR591mVJ8wFABRWMm/P5BH2o2v45YCOAjT57K8YUm87MlwZSPyDo1S/Xv8jFufYcrI4Y7Qy1JND90kb11xzzfVv0FcsRQc+Ia5PxO5+/o4+RKfO+QMBJo4CEIrWqprHCoBxJiUvwJqdPOFcCG0yKUDDaFsAQGEA8BBTbnck8wpjXoN+J5ezLeRSyy5E3ImTEE21Zru/3f+8DTb9mCGfiFu3WIrqW7xJXxLlzUgBS1GbPCJrWwJeft8fAMBTJhIE/e59np0J6AQnp6TUCEAyFl3egGAymY88aKGN9wkAuFpBw9eDA2jDcTeMOQ36nQjTg5Os7vpynn91Ij/Q1kn48/hwvrE5Y7SydCuj6pOmHAqkFU34hMgMVgC09cFa/yDgo5O8JkDsKOCQxjXGCQnJUf7caJ5FXGkhXQIArgYA05mSb70whl+RBa3cy3nf+BU8R2yQaQBe63ddPSfl9KPYb/Ycsmm5T6//t6fzjc2R2WlFYxx9JVdmCnyvmv7SUnTEITbH9YYuRJsP+gMBl+wG9loBrzA6oyDJEEphFls8lXK/73yehdxlZmUJdQEAV/M+VxXJSi4i5cgFlEu+qw/fhuT3H/CuL1gnVvvM9T9maY51s9Wkiw6lu9DXmdWeNOemQDpDP+ZQ/O427nrXvz/Ax+d4mRpn2pxWAJN1th1BEfaVy0P5wcG8cxk2XQQAXA0AHmAyZy/czGv9C5tXCr1/KGOSMsg0pF8u9B6/9zbt9nfuP3e9TRzHhm4dgki1tKKb3LpKPhuiQDpLvfOIr202R9XAHFz8ffw7fppXGHBaAZBwY4+BhBt+F62J57BTuZEhjBJCCjHiJvoYRpsCAK6cS4SeccT/I2QXPBfGnAb1TsgMFMrikrPwb+Ls+479/pT/ss02sVf5U0QpRd0NqTtpNp8CrTrTn1oZ2szFnE47g5f40P5ExF0wCOUxOQSVM6535/ECFM6FzNUWV4rSqWsqh1YCAK5U0pPW8BwVPTmCV5lxrQHOdnozJicDsF7DuPsH+Frh89z/tQ94/IUc2dp03Yikdfl6Sr4bpEBTrYALeROhhViRH6Bmpz8Q0OgPcOxKgaOzIDkjApB4Y9Nevr7pjMvUs1wCy0SMsqkxN9euAIAreZ4r10alA+rN++zGZD1cshXJuprj1XL/jnN/vyF/wxcZiPdXdL6qmv7NoKqTpotRwMrQC1xM6rRzSw+iAyf9gQBOf4Davbx5qXGsUO4ii+PvuPwA2g+oHDoJALgSANzHkP8fcqLSM22+zOiIDCdrzrj/Wp/n/jPW2NS6G9+RhqMv0oqeKqaf5L5hCnTsSJ9JZWmuMxlcV9QLOH/JHwg4wegPkJnGZ65CimAoyTgq93L6DLMgRzplWIG21F+pOMp5fxR/IwDg03msq+cpHAVrWiVH1szflGMpsOXIYk6Lmt9z/0W1BvL8Xw5DnwEdZFjNSfOlKGBl6a8tRR85DMd17TiRyI9PIPwBjjJVDdxaz2uKw+62kpMD4WyWY/7HLq8MoCQA4FMAgLS9HLzxVAWX3IZseGAQzxoCrW/qRrSNqVqi33P/ZXU2PclYwtjFQ8daKfrbUrpJ/hYQBVIZus01MSwLHe0NWerPCsDpD/DOHB7B5dBnxNLKUG6Fdtw4m3XGqXOFCbRQ+3G7JwDgUwDwm3E8ig05J+LGB+X2FyHDOusm/9meTBX/dM79DTn9gU5tAlJv8ppyKGApGpDPgLrfYTafv8UfCODyB0DqUs5c1WjLRCWucoWMyd8hNlt3zvE8aFQJlhIBAJcBwP6jNt3cnef8d3FdZQIAVCTllDNIlcxVYtvvuX/fubzHGS7Z0qccnSS/CZACVT3oi5aija5JYlEGP+xKtPWQPxBw4gyPsBiyiEexObTpPLUydrj5YAKCvrUI+k92qAIALgMALgdR8BZ4LJ/vKuH7W1N4LCSOjEESIQ66AJjU1Hn/P64mR3BAdPrDeF2HMPQAVZu8qlwKpBX9g6XoBONkNzJQm95ER057BwHwB+CoFwChc29/vgWKuNzl23gWKMci52yjwxgeOuHohbNfYbQlAOCyskapZw6Z8OLYygTOK7fzFEhyaNy2H4+j5O6DNtX4iPeftc6mWxkKhDnjcV2PV2Xp78vVR/K7ECiASkxIy+iaNJbF/6vhRBd8RAbkckRHjuvvGlDel3NMvx7eQDhbC0MxmXwn1znmw0PiL+wFAFzmby7HtuFL4g8K89ceZMCjw3gAkiOfZm3Qp1P9YZtW+lD+8Pi/px/veJrGlbOy1DoElSav9EqBtKLXHWbkvP5mvL90wVxOgc+M4mXsSnQIXL/bZgFKyMTI5cGcL3SD+i4AwCZE0iC0k0MOgLeCmrug3gNQw0Ebpw1U5tTtu1+nP6T5fcxEeV+k+s3Q77zqIfl9SBRozA+gaKrDlJzX7EzvRwF44twF/YWBcsGtGM+1EKaDhEO6CzZqz6MKIsecT1ihv5MJkzYCAGwawxT+B54Kcy5NvHvTPj6fGay3ll2IkMZct68bdno/84efwG/H8m6QXDJkRptR9NmQ1Jm81g8FbsjSV1OKdrgmkUUpoL1hPsMDT5/VVyicyYEwFpyZ6y7YqD3/5mQeQdCRuYBJ0HQSAGDTS+N5eAFOckHPn+n3PT+ahzaOjEWpZd0+1+3xp/xfn8hryXDGZCnaVZWh/+ZHB8kzIVMglaHrLEXnXJPJAgIQHjh9oz9LgG6mQITwIcSGc0wfrNIHJroLn/P5KUxFXxAWFWev76QDAGTs4wr/A09x8mjYbX2wkldhourojgN6u38878fjv8dM3rG4ZOtZyfMfshLXfX1KUXvXhLIpzlbV/goHcUQGcGU1c+iCxVtJuQFQ0hfmSGd8Otd5tfEV/EkHAHM28igG8FIllYlGaN1tzF7yutkz9xyyabmPcL/BC3KslVPdsiKl6B5d/SPPR4ACKUW93BPL9Rk16Dfu924JsHNEhzUiA+Ak8ytmz13Oil1h727wfi5nIBy5RGE8fvqQdADAFdv++Hvx5YFCfMNZaRSy9JfD9CKKYKlZtdX77n/sshz9gAnoF9AJ3SKguqQLHBS4sSt9wcrS0gKTrL1LvK0n0e6PvIMA3ciAFdtzBCsE15hwrDGbIXynkMAJ496AD3l2fz/rE1/nryQDAIDkNr141sfAD+NrBcpfewjRw1rnkhuwjqza4d/0jyO21du8K/8PVuTopq5848ijx6I2HenzHLpH2ogIBao60Tfg0JE30SwL4ae9ieqPewcBFy420CGNWPzsDF4nnrv6EO057H8x5wubML+v2cUTDgh+WbY1ngogyQBgyRYeAIj5R/RNmLzM9W6sbQBaThn49gwN68hRm9bt8K78p6yy6RamjJ/5tIDjeKvO9BcRUVvSDU4KtKimb1uKjuVPOsf3O/oQHTjpHQTohAdiQd/Rm3dBvzFZY0FrgBkuIedu5+6+PLTpMTueNEkyAOg6kwccI6udm6fi/Pn1STw0ceQlLCy7D/kHRxt2eVf+M9bYBJ8lpw/M1xNVnelfOHWOtBUxCqSy9H1L0XlmxmlkSAiLoz5SBp8971/BTFvLt9MBTWAerBSPZ4QlccxzuwH+5ydMhZFkAMCVDQ40DHMOud49fS2v6R/rarJGZMQmH+F+s9badHtPY8r/YkpROmLqSrpjggJWhu40kS4Yi+Le/kTHPvZuCdDJEcAV6+woS4S/bd7nH9lzCS3dduYyeYGDLut2xY8eSQUAnMc/cY4CcdbPlnr+0OGOGiWz6/Z53/nPWc9/fOHIO+gC8fg3oWkj3CZSO7oYgGWn6LT3i8FEp855BwEnfVYPRMpazlKeGMeTI/Q8ex3hE+YVDkZcceD9F8TPDyCpAKDvPB6rGKr/wUM9TB7WfTecIZ9mTiF+Sw8igAo/fdtW7135z99gU9u+PNY8R0a7rylFL0VYVUnXjFCA6FpL0RA3I3B+RvGgM+e9g4Djp/0pmvEreISemwYoQ+xnkUfpmZcm8AiOR2JYHCipAOChwTxz/orGLjcqa2DQQn658P5Kf3Jh5wGblnss8APlf49B5W8pGnAN0bVGdIw0Gm0KXNebPmcpmuVWepyfHxpCdOKsNxCgkygIhTg4+4962nEvG4wshxw0gW9E3IrBJBEAbNhts4W5TdI4444CAECZX+44eRQk8zM2OAt6TfTTqPzNVPZzZMI8hIhHW0tJ74xS4Po36CuWoloOJVGoDRwHHPcIAnINREdPeEfZKOyDAj+F+uH3XvuBDYTSnH4WfRSeQaQElxCEaTkKYyq3D0kEAH3m8gA+JPmKc0jsvsM23TeAd0OAIxEUECqX/5zfIcvfCo+Jfmavs+nOPrz9z5OBG6qq6ctGlYs0Hg8KtOpM37IUHcxjEDZF2m4g0dEz3iwBAAEfnfSucLjTBIMmHEU+HGEQxvWFMTyCpH3MogGSCAC4lN4LY/3tdMPg70Lv5C4aBjkwtsa7PPKj/OHtfwdTEqciMv2AlaFvxkM7SS8DoUBT4aATRRhGGwzc05/o8KlgQACEF+c4UE99aozNochTzkUPnaxnhQS1yXtJAwA4ruKaZ/jUmJwbk23j6IIz2x9o+qIPQORH+U9fYzTUD/xxXAr8BKJS4/eSdDV9x1J0mkuI5Ldz57veMwb6OQ5AVAB3sozW3eKbEQ2FXODPkD8ffr53nxWfnWHSAACy0vmZ0/xnWsW4+A9CILmPASFLIFO8gBa/yv8n5uL8wRsfp7P0vfhpJulxYBRIV1MLEyWEHSGDjIFeawf4AQEmEn/ABB7Xc9GnRvIoB6RL9iIIw/xtkgAAwt240twibC7MefP7bqzNe/vz8Lkjr2BJgCzx0ic/yn/iihx7KLMzhqbr2bSiVGCKRF4UXwpYWWptKbqYx0Asuwu0iZh9r1UE/YAA7tSf6HtcQ6NGLOUzDy+u8yYQvQhPzt8mCQB8uJlvfkcti8f85vPKy0whr265BxmS/55S3/cetmmlR4e/UUty9CNzhX0gty+kOtOP4quRpOeBUyCt6A5Lke1eDJyf4WW8ZLt3nwAv0QEIvfn5uzymb/fYhy6On4DcfsAmmHbd4/D7OS4lgpMEADpN4dn54qhoxwFv5u5SCjGovyFnh19+LvYcZIeXXP+IPPCq/AcsyLEdzxUZh53O0O2BKxB5YfwpYGWpnamUwWDWltVEUzd4BAE5byGCS7fk2BSfs8CgSBfFZBfsFsBceRJwToksg+62o/g5KQAA2fpu7cED7hAxEsW5LNUnWD9QltdZnxxXrPGlHqpg+lH+3WfmCA7GHP0t0kYunaV746+JZAShUSCt6NEizMXCuDhjG7jYLAgwkQ3s9l7+04GWEmYm/zZhJd8uCUWYTPaVo+2kAAB4vXOt0fdXRX9e3byBlLxYi1zjd9oZ7CELKM78V3rM8Nd5Cn+kgtP3pmtDKku/DE1xyIsrhwKWoufzmIt9wXWbQ4QsgOX+85InAA5SXLtfNx0eG94Qq1zpcJLiOmt8fnT0d4pJAQDITufmS7+fwRs4w3Yr2Ch/3nfEpl8P5xm7m2bgbciMcsbu1eFv2WabXmTKy+Huc/7nVJaerRwNJCMJnQJWhv6Qz2Tc3zt+QHT+UrkQ4DJgOH6qvB3L9v02oX43d59f8+gkVI5QMfkbODFy0KBVNVGdz4IoJsfnbjsJAACZ6XCUxjGncXNwfXUiDy+7aQcZAVnh5qNinxtz+9eVX9znw1qbfjWMv8/u/uMzCr2FrjCkA5VHgSAsAUgdfMhjwqByqwgu3JwjKK78BaP7PU6V8hDSpDte5/m+88sDX8UEqOn7SQAAXKl/Macz1kd7Pt38wlXx0OFlXAGk5m8qjwbb670V9kF2P5MV/VzjeLPyNI+MKDIUCAIEtOlNtPlg+ZYA/PLUx+UtXBOCA448k1aX9363EAvjMxzGuEon39032jkBKh0AwEx9F1OUy23vxKf0LwpcmXCeKxfQbvVY0nfM0hzd0p1/4+FS+gD1OPMXs39kNGUFd8TK0sOWolweA7LtLNHuD94mmrXJGwg4c7b5c2kIzQ7MqYIb+9uFCBaGMJS613dy5klf/0pPCwAAGEBJREFUUOaOyWsfOX5f6QBg3kY+a05c6l0s2ZIjhBBzyx74CJVz7r95b/km/5o6m/rNMx7m16j80xl6vIJVjgwtahRIZ+jnlqJL3AvR3Z4TIeDBN5DOnm8eBOw6ZFPbfvxCBClDN+4p7/yQQ8H5bWPFdj7F8fsPmqe3337qPlfpAKAjkz8H1lwcyl6j2uftBlLlIt4f6bJL8RvAQe3u8pX/sjqbGj39zYb5QfnbCNeOmn6Q/iSAAk3JgoxlDHTAwGtTvDkHnr/QQIeOlV7QqBX+QwM7CVRja06YlBI0Qf3tgYE8zkigYVTHW8kAAMl6uMo8PzAouiDOWQ/gMe40v5AviHxotsDVUZvW7ypf+S+qtekJA9EJjjx0XS9Ikp8EKNooD7EpbfA5F1Oym+fQ9oNDiA6cKP9I4MLFBjrcDAhAXDx31TD09cmR0Q8P5MychrYcQR2layUDAM7cFlGdP4eXEO73xHs8gNUtp7D2P1hZmnf3H7Fp7Y7ylf+UVfDL4O+ru99Nn89Ket8oa8YE9a2pgNCZAkzKCgZu6UG0dEf5IMBuzBpY2hKgpplZrMhLfiDC2fIQ6sRVIRDOgOWcnzoCPahrpQIA8BVXimvwQLlhb0HNm/s9GOtL482s0eb8HpATYdW28pX/wAXGc/o78vS0FPZJkIKNw1DTGfq/lqKPTIMAoPY+C8pPGoTkQqVyBUDAoPqZiX6/MTnaptUXx/GNe/q60jspt1AP6nOlAoCpjJn/fjMuujwKUGmioBfW+pMjGkqms8aRw4oys/sFeN4POXXcUvQfcdAJ0seEUSCVoessRQdNKNP8Nl8YR3TqXPnWgNMlwgRxnmrCKRB97jIzugJ21gY+Z8AolpCtVAAA5ZW/Hvx+Bw8EBci8vic7g2+cbvrc06+0n842DzH+c9fb9NBgM/1097np84EWiv5PwtSKDDdOFGjVmb5lKaotwLxsQstp+44+RJsOlA8CPi4RIQAnH674eKd/zhXJWrwKvyB+jx0WlykZlpnVO0sftwQxJvc7KhEArNlps8XA39Unmkc3mMPec/nAqbMOcb25O9GaXYX5FNZAL57+42tyhMJY7vYNft5gZeibcdIF0teEUuD6N+grlqI5BhfDJ4sOZ5jv1ZR/JHDhUnHnwHm1/FXFHBoM+DCaIABZDJ0+6l47TY2WtaMSAQCOlXTnyXk+qjzJ6aDqjBVXZAGds7HwOoSz37oynf1g8q+eZiarqLu/n3zO0uyqavpyQtWJDDuOFGjTkT5vZWnwJ0yszCLlF8cTHT9bnjXAtlFSuPAuYNhiPoXoHjsyl42pKSx83LvWoD/DAYwrnAwhVVEKCaw0AICjKq5iTpjzKDr/ja4xk+UPa/G9JYXXnxdnvznrbHo4OJM/wN6A63rT5+KoA6TPSacA0bUoTIE0lW5laOozCnms3F0eCEA1wWNFCgnBO9hEH5FrfGIEUwZzFQgCzbyUUTUNdioNAGDHzsWXv3s/WtYa8ALWBldho3w6FfPFQUGfcp39hi7MNR4h5Ldt6HtDStFLSVchMv4KoEA6S/daii4YWihXCEWcRXefQ3TJLg8InDl3tSDE2TinUnSPu0WWCLsc08rPS/sfbuZTLPDLQL0BL+839dtKAgCIhf9pbz4r2uIt0eJB5OQwUagLaw/RLjjfz+ezLXttWl5GNb8lm216fWIDm++FWx4U+XzBylDbChD9MgShwGUKWJ3JagphuUJhF1kA2r/55TCi+uPlgYDGpEHHrxQQ+w7b9Kih0p0AAaMiBgLaD+CzekRlbJUEAEYu4wNpUcv8N2pZjrAmTMgCrGGsZbfyx3n/+p3lxfcjsU9AVfyc8R9r0ZmqRG8IBSqOAukM/ZOlaKeJhV6ozZu6EU1cS1ROLYFcjuijk1fuinBGaio8ED4B8DdwC6YwP8M/oRAN/dxrTAxUYMcV9PgqBQDsZ0z8g/kctzw6fAeHPxOV/TBOhPttP3Cl8t910KaVW5tX/nD0e3t6js0/ppx1lFK0oypD/1hxgl8GJBRwKFDVib6RVrSknAXB9ZtnxxAdOlWeNSC/ouCG3baxUB8cV0TFE7v+MG+hlfdXha9kKgUAwDzOtRZu70WE44SgwVih9/VbYCYVN2iF8Lz8wlxb99m0vIzkPtNX28RVK8PDvC1q1Zn+wpGTchUKVCwFbuxKX0gp6uVhcWgLQFgDJq0rzxqAYkLuOgI1W3PU2mA9797zwleWENDIV8A1JzhSCDs9cCUAANCQ83im3Jr3hRQ257135vDxWj7PYq1izTr9Ldfkj11/txk5urGLmeOI/H4631OKuiNqqmIFvgxMKFCIAmlFd1uKPnYWQhDX58q0BqCOgPtIYOHmnJHqgc6YoawcgRXWFUcenBUSw04PXAkAgDPtL0II803iYfBa91l8/ibO+nGuCG+cX/up8t9zqLx8/tPX2PTgIHP9cvqXdz2XUtS+kGyUe0KBRFCgKX3wrryFwbYTLdQudghT1jdvDYDvwClXCuEZ680lCkI/kfc8bA96zkQzjwwNF9RUAgB4eAifUuo0Jdz5AG+/OpFvPPlru1UXopnrP1X+MPnXNGPyx66/x8wc3WigNHh+//K+b6+qpn9LhJCXQQoFSlEg3Z2+ZimanrdAjIIAvOupUUR7jjXvG4AogSNNUQIoH2rKY7mxTyMbaNeh8M5okWqWc3xh5pqPOwDgrNWAOV1XJAVuEFYAJIjirGGQLyswPifHBoBGOV7+k1eGctZPVpam3JClr5aSifI3oUCyKEB0raXoeUtRLn9xm/yO2GNUF7xwqTQQQFXBk2cu7y4Q5gYHPlP9urd/A9XuCQ8EcFYJhDNVWL4AcQYAoNn9A/l2yy9NCG/3v2kvrx9D/rrDWhyx9PLa3LHfphXNePkvqr0c128q70B+/1zfkRDtzY4d6TPJEu4yWqFAmRRIZ+jHlqKTrkVjTNG639G2P9GKXaVBAP56rslBcOBCsyAA3trLt31qzgxil+a8Aw5UnAAHXuxO20Fe4wwAJqzgc5JDmN2K7eHMAXgJvOxea5yfwacIJUSo5MbdzYf3IZsfMoZy9qHMto5bWWpdphiUnwkFkkuBlp3of1qK1pe5sFgXM2oKHG4mZBA5A46fyjWG8JnsIxzypq8NR3A/O4pv9/kzZAfMS8YSBBCIKwBAmB4q9XHxVocx4ez+cYSB6BuuceS3A+U/aGGOkM53VTO7/tnrbHpmJB9P5/elme+bWlTTt5Mr0WXkQgGPFKjqQV9MK+rXzMIyIlxQMnT8aiJEApT6d/Z8A/VnzM9eaKwwUyILXBAK0/2ORXV8O1CMa2gISY/iCgA4q+FBSS51hcS559jkZxTeMZXX31knqGTZXPlepPFF5b4fdjUHRJz+FLn2adWZ/tSj+JOfCwWEAqBAKkO3WRk6WmRxGQEAzrvu7U+0ZHspCHAZJAxeaH5n8RoiBALeRT/+Ht+4ftwj+EqBcQQAcAC97R0+ZfXUyGB3/3DA46C7swaLXd+ZnWt21z98UY7u6sPHw8X6UuT+8XSWfiZSXCggFNCkQNVb9DdWlmYXWWhGQQDe2WEc0e6PSgOBQYvMCxqE1W3aF5xz4LxaXitAr7nBWjI4FBHaMLlTzm+bO0EOCj3lv8PUdzj7PcIYtlhsvSNZT02JIj6TVgResjdfBs1o+Rb9labYk8eFAkIBhwLwnE1n6LmgqgrmCx+Y4rvNITp1rjgQGFFDrM5z+X3Ad+wOoZhNCfH8djlDt5CIpnZvcAAmbgAAkR+ciZieHhUceJm7MUe39uCzXBTifRxnwJxfTPnP22DTb8Y2sIaxFupHiXvn01l6+hqiax25JVehgFCAkQJWNf27pWhTiUWYj8ZZv9/Sg2jsquLlht9fQ8aKmzhjxtkqzj/zlbWJ7zg/huB13q17fXFscEopbgAAznq69HWeh+f/sgDO/hGuiPTCps/7MZ5iO/8lm2zKTssRAKYz/hCuGyWxD6Ogl6aEAsUo8J0s/XFa0duWIsTVhrLo4dmOSoO5AqUGZ20i4wIR435uVAPtyKt2ZgIEdBjLp5jQ76AiG+IEAJBlkpOXfzvePNBCch9u3ihEAyj/nrOu3vkv22xTv3mhhfV9Ol9ZGiyOfsWktdwXChiiQErRzZaiw4WERlD32g0kWrDl6rTC8+uIkJrUdD9Qrth0voBVO3izA/78XbqqRrsJ4BIXALD3MG/YH3bjyOhogqZOm7AuoOyzaf7GWAbMv1L5I30vFP8dvc2/v5nxHUorusmQeJNmhQJCgeYo8L1q+ktL0fvNLFTjguqRoUTL8xIJLd1BgeQYB9BAadUDR80J/d9/wGsFCMIhMC4AgNvxD/n2HUXNfQWP9Z2XCwTc3tCFCIl73Gf++N62Ly8v+pEdaUVj0l3o683JJ/m7UEAoEAAFUlm6y1J0xM9i5nzmyZFE6/d96ii4vp4IfgOc7yjW1qPDGq6qgc6lAOC8x1kwBVXb1u82B1gw7jgAAOTnBy2KzanX+3AihDc+17y728F8/XJYMMoX5/mjl36q/EctybGmRvZKV9fv65GtNACRJq8QCggFvFAAiNzK0mjXYmUTrF7bBBBwUgvvOkp0B2Nmt1J9Qea10TVmHAS5d6pPvGe2TkDUAQAc6B4bzqtQTVlWwFNBOdkh0gWFerDzx46fsyZCqbXTzN8aUop6tXiTvuRFJslvhQJCgYApkM7Q7ZaiA80s6EDAwSPDiBZuJTp0iqj9QL6dXnNje2FsA23bz7sT3HPYZs/rjqx37l0m5+eoAwDUk2huHr38HWfi8CfgpOHWeps4oxOaGw8S98xcYzee+98TAVN/Y38ztNnK0H8GLMbkdUIBoYBfClRV05etDPUMurpgMQF3/6DL6YV/NTw4EPCTd4imruFVsOOW8yotmL9XG3JYizIAgGMlp+kffMdddGnymhyBh4rxNPf9+/o3UJfpObozvOx9+WO9aCl6taoj/ZFfOSTPCQWEAiFSIF1N37EUreMWVn7ba9M7mBBBd/+eH81XXhhm64cG85qtfzGogZBClnPniraiCgBQ7IfbrI0skZgbDhpu3GM3hpi6ecj05xZZIqSLNv0eD+0vS3em/x2i6JJXCwWEAhwUuK43fc5S9Lyl6GMPAiBKwki7L3AOQ6QAh6JdsiXHnm2tx2xeS0WUAUC3mbwACqFyHAV/AEyQ1IfT2TOG6+2MpeiJNqPosxyyR9oQCggFIkIBK0PfRPhODIWSNgBwxnxv/waav0lf2Xaeyq/EUIGQYwfrtBFFC8CCTfxZ89Q0/bC/+bU5Am84fJLAK5KKDbGy9NcREVfSDaGAUMAEBdKKUpai9QkUco0CHql9X5nQQFvq/ZuMkQXu9l68JlucN3OGsEUNANTV89OsTS8iVBB0QI/X6/b9NnWa0mA8fXWU11pa0fJUNX3XhKyRNoUCQoEIUgDHAmlFT1mKTkZZOJns283dL9cU2OfTc3zSal6HQIwVceYwRXtVZIV+HyUAgFLOOKfnns8pPp08ES2AI6HW3XlBHPf4DLdXb2WorRTviaCAli4JBYKgAHIHpLPU21JkGxY27MKfq78/7X05d4CfTIKoR8DVD6edNyfrm7QBCKIEAN6YzE+nF8Z4p9P+ozaNXJZjt944cxeT6zl490v+/iAkrLxDKBADClRl6B8tRaNiIsDYlS7Gjdzu76/MefImh8nexC7yvSX6/gBRAQCjavgtJbDebNrnzVIya0OO2g3gByIxWzMTW3Wmb8VAJEkXhQJCgaApkMrQDUn2D4Awh6nai6PgWObcAOgD8sDDYa6Qab/ce1EAAKCjiaJQE1aUTxs4+D0yJPGKf1UqS98PWp7I+4QCQoGYUQAhQFaW2lmKdsVsd8NqGXhqZAPN3VieojFRFhaWBZ3wtrABwNItOWrdjf+M/TfjyjP9Y+6eHJlsxZ9StCOl6J6OHekzMRND0l2hgFAgTAq06UifT2XowaikFQ4LjLQf2EAwY5fKIYC0w8jhzt1HJIdZud2bqduxEIQJAJDd8FYDiW0QKQHPfWeM+Vf4ccAxkDtZE/e8BtAeCoM9L1n8wpSg8m6hQAVQoKoHfdHK0m8tRScCEFzsSpSrz3f1IRq6OEeoCZCvePAdaYcRYsj1PqcdhBuu31X4nYX64dwLCwCgwt/tPfnpANpOX1vYIoM5wdxgjhy6JfR6LKWogzj4VYDglSEIBaJEgevfoK+kFf0+6UAAu/Kec3MF8wggKY0JxXPnu0S1e7yBgDAAAPpoqvJjdvrVpn/kckCVxoil0TXCA83w1XFL0SuoARIlmSF9EQoIBSqMAt99i/6sKbXwsWaEUhiCMLB3tuxC9PSohsbIAed4AFdTDmc/6enNJyBoALB8m7nwugcHNxByCcC6ATM/PPrhd4E5SDIPWopOWYreBDivMDEjwxEKCAWiTIHGioOKXrEUfZRwIdwYV959VkOjqR7FZBCmZoImqEk/fV1hM7hj+neuQQIAmObRNxNjBi1hWcDRAmjMnYHRRJ+Nt5mhoylFL7V4k74UZRkhfRMKCAUqnAI4b7Qy9GtL0Xbjgs/AGTtnn9NZoseGN9BL480cBaCvKH4zvIw8AUEBgGGL+fP7u+cEtARNQVv3/SR+Tinag2I9csZf4UJVhicUiBsFED6YztDtVpaWJlE4Bz3mt6Y0UKk0xqYBANLpImth0ONO6Ps2pLN0L1J4x00uSH+FAkKBhFGgRYautxSNtxTlEiqwA1GM7Qc0FA0TNAkAcN5/n2TVC2KO51hZai35+hMmQGW4QoFKoEC6mv4urehtS9HHAgTMmLBbVVNj3n/syJ3zf1xNAAAUKnp3npnsfsIfn/DHBaTlTnWm/1cJMkDGIBQQCiScAt/rSn+eztLLlqJDIug/EfSsO0iE342tyTV6yXMDAHjej6nJGQvxE55o5ImDlqKOKNCVcHEhwxcKCAUqkQI3dqUvWBm601I0X4S+GSDQth8Rigl1mqp/Po820BbalPkyQ4NUluams/QzZN6sxDUvYxIKCAWEAldRIJ2hf7IUdU16YiFRrGYUa8TpetzKUpcW1fTtqxaG3BAKCAWEAkmhQGMYoaL7LEULLEUNERfcshOOeChmhPkHvD0PxXla96Y/Scr6lnEKBYQCQoGyKNBK0d8iyyCqmEVYkAsIEBDghQf2IVtfVZb+vqxFID8SCggFhAJJpgDKl6YydENK0VBL0RkBA4k0k3tRslH77SkrS4PTGWoppXiTLMlk7EIBoYAWBVDSFLHQCI2yFCFEKmrCXvojcwIesFMZmgkTPypoajG9PCwUEAoIBYQCV1Ig3Z2+llb0kJWl2RC4AgYEDIXMA5eg9C1Fv7ghS1+9klvlm1BAKCAUEAoYoQAELnZblqKJYhkQIBAgEADwXJjO0OMSs29kaUujQgGhgFCgfAo0VibMUNu0ojFNJVLFLC9meU4eOIkjqLSiu6UCX/nrUn4pFBAKCAUCpQCKEjXVInjTUlQb4M6QU+FIW+EDmO3pLPWG/4kk6Ql0CcvLhAJCAaEADwWqMvSPKKFqKZosEQVyVFACEJ5OZ2lSo2lf0T/wcJ+0IhQQCggFhAKRoAB2ci06U1Va0etpRcvFkTDRgABn+TWWoldTWfq+7PIjsUSlE0IBoYBQIBgKIFwrXU0tUISlyZtbwgzDN72bOv6Awl/RVJ2yjXjtB7PG5C1CAaGAUCAWFAAgsLLUKq3o95ai6VKnINYWguNpRdMaK+xVUwuknI4FE0onhQJCAaGAUCB8CiCLW2PRoiy1a3QIU7TGUnSxxDmyqd2rtFvaMnExnaHVKUW9LEX3NRbZIbo2fA6SHggFhAJCAaFAxVDgut70uVSW/hk5CJrMyQstRacFFARmLQCtVzSl2n0cER/fydIfVwyDyUCEAkIBoYBQIF4UaPkW/RX8CRq9yBE+pgjA4JQAA9/A4LylaGNTCuiOlqI2AF6SWz9e60J6KxQQCggFkkkBomtR4TCtKGVl6AFUhUOyIpirBRw0AoOTjbTI0mgrS2+ARojSqHqL/uYaMeEnc83IqIUCQgGhQBIocP0b9JUWWfrXtKKbLEWPpLL0GkzblqJZlqL1lqKDlqJcDK0I6DP6jjHMwpiaxvYwxooxI3tjEuZYxigUEAoIBYQCQgFfFEBmw6pO9A0oTaszWekM3d5kTXimMYZdUfemssnjmqrRfdh4Rq5ok6Vou5Who5aiY67/ZwsACtz79DeXn9luXW5jhaVoQVOY5Di8K6WoO95tKXomnaX7U4p+gr41KvZO9A0x0/uaanlIKBAoBf4/TQArUZJN5toAAAAASUVORK5CYII=;" vertex="1" parent="QgJrXV9QVyHgD5AR6pSV-63">
          <mxGeometry x="169.5" y="40" width="40" height="40" as="geometry" />
        </mxCell>
        <mxCell id="QgJrXV9QVyHgD5AR6pSV-101" value="" style="group" vertex="1" connectable="0" parent="1">
          <mxGeometry x="311.89" y="490" width="40" height="40" as="geometry" />
        </mxCell>
        <mxCell id="QgJrXV9QVyHgD5AR6pSV-33" value="" style="shape=image;verticalLabelPosition=bottom;labelBackgroundColor=#ffffff;verticalAlign=top;aspect=fixed;imageAspect=0;image=data:image/png,iVBORw0KGgoAAAANSUhEUgAAAOEAAADhCAMAAAAJbSJIAAAAkFBMVEX///+YVdSXU9SPQdGUTNLMr+mRRtGTStKVT9OWUdOQRNGQQ9GSSdLr3/b9+/759f2fYNfBneSbWtX28Pvz7PrUvOy/mePi0vKhZtincdrHqOft4/f28fvRuOvcyfCyhN6te9y4j+HezPHYw+6pdNvn2vWtfNy7k+LEo+a0h9+hZdfKrOjOtOrey/Cja9i1it8cxlc/AAAQhklEQVR4nO1daZfiKhBNEIFEjEu7L+2+TLej///fPZUiixoloaK+57uf5sxpSW6gFqqKwnGeiu++iwZv3Xruy5ugXSJ4DF2v0n01oSvUMQm6LqksXs3oAgHBZei6lfGrOSWBz9Ct/L6aVAIFMHRZ49Ws4gCGpFKyRexLscOracWgGBLXfqS4yuJr+/GwAAxJYD1SQinTJcK74aAghq6o24+IA3SGAih6zRHC6yEAm6HYME3Rew8PDpuhXxuXgCKhVYQXtEbgnRl6aAy/nEUFJJKwt3BSXVxrcWTodJmmWPm2H9ca65NqEBP7gSKGTpVqvfoOTmrLk1SSL/uBYgydlutpigP7kW0RtLcLDNsVZ+jU6tpqsA7C2O+BBEMn6NN3dFKtkGToOFP+hk6qFS4ZOjNt+2n/XTw4O1wxdBqaoujVXvdeeLhm6JS1eyOaCMr6AsFoNW+Xt53Zn/VyOZ0cGoPd96pV5Gq5wdBZ+KGTOkR81Nf897CnFSY5pUII7wQhKJfMZ/XJ4G9BDvEths48dG84kpPaWsxcJqlIC74Qj0pGp+UCfOKbDCP3hvgIHtyqUWc8lVwMHmXkzwJZ+m8zdIZCuzeltt0DujPGTNjpyRS81B9jblJTGDq1pnZvSuX8ow87LhN3+KSw5HKK5/ynMXSCvXZv/G3OsefLUvrsEXIvIupJb4CkyFMZOs5SuzdslmfkdpN5V29+1ChH3SnpUY2SI0nvqEoZ47c0EKFyhqLJ7zB0DhKeJrNv03aevHjro4Qx/2eybXdbX6H9C4JRa7X4PfRF5Uj7gqSorBF06z2GTke7NzxjmLHt8iQ/IeVPp129Y9lb3d+px2jyZx6bWFtJxZClrPmBVhO0l8HtmNcT80cEo5u5iXoMVoN+iSemUrCOpcOjGJLmbfxET6qbmqnhkpHEKzYbqwwvVFuseWIBUGFnryBeSlIQPUgaRja2fmwOCPdnWegp1MY/lZiNIWxvo3KMU62kZzLcqsljP2E/45xLrDqTMZH0SnkNlpMlmUwMRtv60XDHT28TlhwNaGyx8p/c0zi9tllpeDhWax9NoCW/M3ZubLxS3vjf3Lzk4dFQ35EWJLI+z/lCCZQpDR/P8sZOF036CGYMG6XwZSjFCrgGnVL42Wg9r22sPUDgGzAM+uGKItYmLI5hn0UD/8UbN4HSY4atcCvi8jryNrYtw7Ft9jn38JhhNXRiCLNQ7CmoTcNpZBv00U94yDBM6rjCy27gDbDTiTFXFhLGfcRwHuoYOS0oajYMpYD2Cxj+AcPvSigm+CtUI5jqrRzd43/F+wy7YfaYFZp3bOgYp9ijj32XYTWMPIqC0+NtLYwCvSjmHsOWdh69AgLkF+hqjU2x1c0dhjVXf9efJyQ5hh48jSMbjTsMe56WjackqlqaIsOtpExnOKFPJRijiFtNkcqwDL6GV8d83F20tCwyzEROGkNtJ0jzibnUIVBEfWgKwwBWDOGFa9E49HfFqLXRSGE4BUeKFeKKpqMNpp/hVf3cZqiF0LdMTmVHBxw4hpa/vcmwBQQ5buVNq2WQ8l6q1UPQFNxNhntlCT1EJ7E2XlPJGO1tH0xOAH4GxyrdusVwp1YKoXjJzDKFUBahlQfpilUJd53eYDgCUfBRQmonBH29PTorygfSveWoK+gGw4mSBJors3gTe+omULl//ONHrVOGo+auGcIqQbS6He5ewL8rZKDoCEV5g2uGe/UF8Y68teCTCc6jKte7dnagPglFOelzxfBbfUBEr2JzXvXC27YX5R7YIfJz9ydNWKcY/ukVQxico+nR2lkI+UEtuTms2PsF513l2giMMtFLhgul9TheeLZ94uSFO3ezlz8obVdCsBiXDCFvjFBHr7E+GUIZrTelqsn9hN5IxfjEH/vnXzCcKzlhiMdOTyOSmG1rqVXywKA3KJYkXjBUihTPKTwSOq1KEXdwl2fvRt7fyCvpdYW9UU4yrCohkYhbiuFpDkVc78/Oy5Q/WCZbRbFkHQRLMpyZyEg2VE8MvXgUdElMGNaUJFJrBzzBMODYihRWadz4gLZ+eD5JmVHStH2BBMMxMMQMzSgXLFKKeusgHxncISg9W/8/wbCnjvMh7nsDXTsvN+qzraCQjzzeOSiN5E0tXyHOEL5aBa8AvO2FuwrBZ+3v3VRnQgyKlGA5+5beVZzhLzX8uoZY9RI1cIJHJYrEM/i98tO5ZVAqzvDn/HyOZCq+Jn56sYtRiKujdI1l2jTGsKX0M0NJwwTbqET6qhzVlUaGfAVSY+fXxBgqTWot2WcsopInUpms3GRBuG/oqaiwtOWiijFURWKPLLEJVvuwvIHI3tHwBevYihVsZziOMomeXUYxYhgotffQTj3E6BDRCSuo5nufi1Pxt2Qb40RBVy1Tu2hGxFANZyvXR43sRwIYr6Aa7g79/bLzneF1A0P35y4ihspWZPQDg+pi3O7GdNN3M1YhNrXd+yijb+ebRgyVGGZKxXSnPpOcs8oShLfajwlg3T6WVT5/dc+qeiFiCB6E+U+rvfDQhcdOVbCjWVQlLSiG+w72QtqMETIcnvcAxPxzlStxK0cq3zseCWBpg2NVwfu2qXUJGX6f55AaVz6F3TY0eOiCErbEcm3r9hYxZDg4v+CD2EKEwSXBGFUXr9IAYq02oeGQ4VopGkPtF5WDcZk8CyM4ZrGI8rOsTFjI8CdTRxV9lIP1d38HsVMKXuWA2gSne5Ydq+CmZqhKEzyjgxdh0JFQtQHf6iUr+8j1by0IjVl8Ns2wdn5JzzBbASHpMOa5A/cKvZA5gAdZfDjN8BwSM/YeVHIjFnTEcD5uQuUSjRXgDWiGasEb7qdr/FI6lFNruQu4BfXpuOlu5AY0w8X5paXZkYDRFR/gjF//OlGLw6JAWTPcnc2hoVdaO094fK+s5KUAhiqSISwqMjVDZfAN6x+Cq0ZPSoxx4gMJqB2PqQa8Bc2wcf5WppE7SK5EmmZtvZhSoNaWjclPMqwY+svqy7pU79YX4CHjdxLbKQE3tNO3oBmq9V4ydGm+oPgAzpiUfXAA8r9HGtqKoUW6TzNULm7J9Gd/oPpMThbdcg/qgdAKtWJQOt4mP5OToa7tc73I8yaigGJbYGgSIk/BxSo1/t1OnwGJYJ0luoU2NkPzWZjJC4I2Nisd7Sv3KSvy6dITZpdpiUIKpsdocqg6LPhZwn9tKr1EbgmxODuEirZhWItyFp9GY7F2fcZ8fQraL6Cx5i+axVc6K3vhem1YHQa/apNvn3O/htIPGF7b/Kw48u7DIKjB8b02ZXhtymo0QxV7zbsPm+tDBOhdy2BrbRFs0wy/zu+YO2wH7Rvs4u+3ULfOdIeRKLVLybtJ1z4ORoO0OCBOY7gzv4kwmngOvTwobL0DqLQjLq7nBrE2jEiUXvC5XxDqZHAql0N0odwVIZoITk3+Qw6wRbStK7jAztppixgqB9Aii78vQtmoUkKrMUOGylxYVHxV9VkXzEtfoK08SmYmOP/LxgHcwK4Yode6horE29WHRDlgVbaXYf909TqQoKF4lX9QjOHbpCMjhsoDlBbeM5wIQyz9A79b2IwRMcyaBL4BcE89tAYeUIBplSyIGCq3xDS/dhNd7Z4iFf9BPY1dSitW9QVtFm3s2RqUDQ+CWs1e4cyltUeTYKgE0SbNE7qnXtNjzO1vLfOlUOptEYZyEgyh7MsquwKnztxTz0Li0ZJdTlgFSSzPXMQraDGOqVw0n/UeHKa8C10vZLdfiTNU+2lqVUsxvwwyyvweF7gQ0k6g4wz/qsIHqyNBtatOhnSacyg4/WETozkhcRpBLVPfoo9CcKMbZd5uLFCrb7lIkww31oGtOkwh4YyFzebSuuA+QF+NlSzb+y5nxI7GGcLBrvy6pgxSKPeL4bC7YTa7Yjj9kUgWfLnsYSfI+50hVW1H/n06xMAlOCEt1aYon0FTW0PXj9ubaVj9mBkwguXBp9XlZx+BAcrhisMp0uR27jrhlZWhdgRzut8q5uD6UX4HKh5z7O8gtJX8aXpB5COE4fgOJOjzTWLnKuaghClHfSicIXV54n/XeVcpDZfVFxSo5ZPEw1Xxy5fMyRCm8OIoZB5NcwKL9fPW8p2riHlzxVC54jJzdrimax8uFlOQ2VqcEX8+tHjId9b/OhWmttXZzQ84bAWUAkaTmMexAac0FsU4VxJl9wPBFlqelknBF7TfyRPfh9L6KIqhwsTZzxWDO4N6IDkCbPFkHm8SFoCAbSEU1vKsQg3xc8zODglAo6Y8ZnoIDV091tsMZnBCT2YVJt0sDivcc4W/8AXz7KLCZjue0JeTZG+6CgVXmI24LgDpzlw56/rl/tBzs67Rb52LLK4r7JdOI+XQp9E9RArc+O4MjRH0hUUMnV8DNkFE5LD7tX0UxyCikr1QCvRoEYUdMVi1pCsf977ne9eY28murbQkl4q99bal6ylzrZTguzGZTtebPO+4AG3Mi77vfgyiaHwoGQlVHVK2SS6YAdrSuaUiSipTMdK1qviFOVfQDRotkwYZH6ptTQUzj5wG7Z4QvE6iD7GHhSOfc5+vlnnytBvZp7r7NHplVQr0MVHiPoeiJujVn9ac+aATSahXlqZhSfUHfWJzZuh4+4xL56MrGTEac2R4rKboF/zYUT1yZ+kTtbcT/OgH577s0ggrL36hG32e9j5S7IXplSLq1AHj5NVbRD6VYjiL+S+deoSweQHRQvHchRpeOk8qhUQVohvdvOZG6kc9k6KzDjd8bIJ/lUdbahE8XRWu7w597iw6mzDlIyhylXPsQiu5PBl63cGOPNMfPmqC8AAQYRNMe9yO2qH44IuGs4h1bbgZVl74JgLvkpTqPnaxXGhww1mUT6VYm0bRF95EWapfh6hfD63H7MOLKDq/kc0irGftxY06Ucc6UkrGq160UJ1qM+odT1jfimNr48e8NO/yNMWL1I3jzGKuh8d+clvH6iF2KTspza43Sy8yGkeF8xOr6SJSNnJ4V7X2Pn4hsKzfDDuHs/hc0++cCp3jIW3B+uNsxmM+SVzqLGRaLO9ls+gEcQk6KYPSfmc4k6PFHya9xAe60xHsZbJ41BITlkhNEM7cyfje1epHjLrbvUzMvyv8P3dd+Vdp1BOGfyrJ9AvxOGP7zng+vOIZfK0W20m9dNEvy6X+4dHUv8ountHqUH5ZhEgEl4w2+4fG4LdcLg+2jc5h2RSScepd/C2RtGEgvy+l6AS7JrtVvkOIEFDEIoQg17WYp4RUr20WTXvlQj2he6Dyql72EU4JKfPXfaG6UQgWk5IU5je4U8Zn2fIgrzMaEbqNHxZ1sU4l51Ep+4PsSeXXmf44avPtkh9pikuNoriJo6IV6+08X3zgHWZRYfi3fFjW+bll60nPcH5UrawieutOu2sTw3q5LCYRDFfzxfhUXr0bt+erIUZc59Ua9Ql4rV18Cj6A4ict1PdQN0XgfYxGYXgP018oPmkWP0AWP0Cj/nft4gdQ/KSF+gHq5gOMxv+m/1+MT5LFD9Co/127+AEUP2mhfoC6+QCj8b/p/xfjk2TxAzTqf9cufgDFT1qoH6BunnpO46kIZ9Gqz+lb45Nm8YnHQZ+McBaRO6a/EfQsFnLZzXsAKOZpK/ZvgVqoFdRLQt8MjRKlpaJa2rwHVttBuir9Bzj13JeM7NBiAAAAAElFTkSuQmCC;" vertex="1" parent="QgJrXV9QVyHgD5AR6pSV-101">
          <mxGeometry width="40" height="40" as="geometry" />
        </mxCell>
        <mxCell id="QgJrXV9QVyHgD5AR6pSV-55" value="&amp;nbsp;4&amp;nbsp;" style="edgeStyle=orthogonalEdgeStyle;rounded=0;orthogonalLoop=1;jettySize=auto;html=1;entryX=0;entryY=0.5;entryDx=0;entryDy=0;strokeColor=#808080;strokeWidth=1;startArrow=classic;startFill=1;" edge="1" parent="1" source="QgJrXV9QVyHgD5AR6pSV-33" target="QgJrXV9QVyHgD5AR6pSV-35">
          <mxGeometry relative="1" as="geometry" />
        </mxCell>
      </root>
    </mxGraphModel>
  </diagram>
</mxfile>
